<?xml version="1.0" encoding="utf-8"?>
<!-- Generator: Adobe Illustrator 23.0.1, SVG Export Plug-In . SVG Version: 6.00 Build 0)  -->
<svg version="1.0" id="Layer_1" xmlns="http://www.w3.org/2000/svg" xmlns:xlink="http://www.w3.org/1999/xlink" x="0px" y="0px"
	 viewBox="0 0 277 87.5" style="enable-background:new 0 0 277 87.5;" xml:space="preserve">
<style type="text/css">
	.st0{fill:none;}
	.st1{fill:#F8C05A;}
	.st2{fill:#FFFFFF;}
	.st3{fill:#00A0D6;}
</style>
<pattern  x="37" y="172" width="69" height="69" patternUnits="userSpaceOnUse" id="Polka_Dot_Pattern" viewBox="2.13 -70.9 69 69" style="overflow:visible;">
	<g>
		<rect x="2.13" y="-70.9" class="st0" width="69" height="69"/>
		<rect x="2.13" y="-70.9" class="st1" width="69" height="69"/>
		<g>
			<path class="st2" d="M61.77-71.65c0.02,0.07,0.01,0.13-0.03,0.19c-0.05,0.1-0.11,0.06-0.17,0.13c-0.05,0.06-0.1,0.28-0.08,0.36
				c-0.17,0.06-0.01,0.23-0.02,0.35c0,0.05-0.04,0.11-0.04,0.16c-0.01,0.12,0.02,0.27,0.07,0.37c0.1,0.2,0.27,0.41,0.44,0.54
				c0.19,0.15,0.36,0.57,0.61,0.63c0.18,0.04,0.38-0.1,0.54-0.14c0.18-0.04,0.4,0.01,0.57-0.05c0.22-0.08,0.13-0.34,0.29-0.45
				c0.1-0.07,0.29-0.01,0.41-0.05c0.2-0.07,0.34-0.26,0.38-0.46c0.02-0.08,0.01-0.14,0.04-0.22c0.04-0.1,0.11-0.16,0.09-0.29
				c-0.01-0.06-0.05-0.12-0.06-0.19c-0.02-0.11,0-0.22,0-0.34c0-0.2,0.02-0.38-0.08-0.55c-0.38-0.69-1.24-0.93-1.97-0.79
				c-0.18,0.03-0.29,0.13-0.44,0.21c-0.17,0.09-0.14,0.17-0.32,0.22c-0.08,0.03-0.22,0.12-0.21,0.22c0,0.12,0,0.05,0.01,0.17
				c-0.02,0.01-0.02,0-0.03-0.03"/>
			<path class="st2" d="M54.11-71.65c0.02,0.07,0.01,0.13-0.03,0.19c-0.05,0.1-0.11,0.06-0.17,0.13c-0.05,0.06-0.1,0.28-0.08,0.36
				c-0.17,0.06-0.01,0.23-0.02,0.35c0,0.05-0.04,0.11-0.04,0.16c-0.01,0.12,0.02,0.27,0.07,0.37c0.1,0.2,0.27,0.41,0.44,0.54
				c0.19,0.15,0.36,0.57,0.61,0.63c0.18,0.04,0.38-0.1,0.54-0.14c0.18-0.04,0.4,0.01,0.57-0.05c0.22-0.08,0.13-0.34,0.29-0.45
				c0.1-0.07,0.29-0.01,0.41-0.05c0.2-0.07,0.34-0.26,0.38-0.46c0.02-0.08,0.01-0.14,0.04-0.22c0.04-0.1,0.11-0.16,0.09-0.29
				c-0.01-0.06-0.05-0.12-0.06-0.19c-0.02-0.11,0-0.22,0-0.34c0-0.2,0.02-0.38-0.08-0.55c-0.38-0.69-1.24-0.93-1.97-0.79
				c-0.18,0.03-0.29,0.13-0.44,0.21c-0.17,0.09-0.14,0.17-0.32,0.22c-0.08,0.03-0.22,0.12-0.21,0.22c0,0.12,0,0.05,0.01,0.17
				c-0.02,0.01-0.02,0-0.03-0.03"/>
			<path class="st2" d="M46.44-71.65c0.02,0.07,0.01,0.13-0.03,0.19c-0.05,0.1-0.11,0.06-0.17,0.13c-0.05,0.06-0.1,0.28-0.08,0.36
				c-0.17,0.06-0.01,0.23-0.02,0.35c0,0.05-0.04,0.11-0.04,0.16c-0.01,0.12,0.02,0.27,0.07,0.37c0.1,0.2,0.27,0.41,0.44,0.54
				c0.19,0.15,0.36,0.57,0.61,0.63c0.18,0.04,0.38-0.1,0.54-0.14c0.18-0.04,0.4,0.01,0.57-0.05c0.22-0.08,0.13-0.34,0.29-0.45
				c0.1-0.07,0.29-0.01,0.41-0.05c0.2-0.07,0.34-0.26,0.38-0.46c0.02-0.08,0.01-0.14,0.04-0.22c0.04-0.1,0.11-0.16,0.09-0.29
				c-0.01-0.06-0.05-0.12-0.06-0.19c-0.02-0.11,0-0.22,0-0.34c0-0.2,0.02-0.38-0.08-0.55c-0.38-0.69-1.24-0.93-1.97-0.79
				c-0.18,0.03-0.29,0.13-0.44,0.21c-0.17,0.09-0.14,0.17-0.32,0.22c-0.08,0.03-0.22,0.12-0.21,0.22c0,0.12,0,0.05,0.01,0.17
				c-0.02,0.01-0.02,0-0.03-0.03"/>
			<path class="st2" d="M38.77-71.65c0.02,0.07,0.01,0.13-0.03,0.19c-0.05,0.1-0.11,0.06-0.17,0.13c-0.05,0.06-0.1,0.28-0.08,0.36
				c-0.17,0.06-0.01,0.23-0.02,0.35c0,0.05-0.04,0.11-0.04,0.16c-0.01,0.12,0.02,0.27,0.07,0.37c0.1,0.2,0.27,0.41,0.44,0.54
				c0.19,0.15,0.36,0.57,0.61,0.63c0.18,0.04,0.38-0.1,0.54-0.14c0.18-0.04,0.4,0.01,0.57-0.05c0.22-0.08,0.13-0.34,0.29-0.45
				c0.1-0.07,0.29-0.01,0.41-0.05c0.2-0.07,0.34-0.26,0.38-0.46c0.02-0.08,0.01-0.14,0.04-0.22c0.04-0.1,0.11-0.16,0.09-0.29
				c-0.01-0.06-0.05-0.12-0.06-0.19c-0.02-0.11,0-0.22,0-0.34c0-0.2,0.02-0.38-0.08-0.55c-0.38-0.69-1.24-0.93-1.97-0.79
				c-0.18,0.03-0.29,0.13-0.44,0.21c-0.17,0.09-0.14,0.17-0.32,0.22c-0.08,0.03-0.22,0.12-0.21,0.22c0,0.12,0,0.05,0.01,0.17
				c-0.02,0.01-0.02,0-0.03-0.03"/>
			<path class="st2" d="M31.11-71.65c0.02,0.07,0.01,0.13-0.03,0.19c-0.05,0.1-0.11,0.06-0.16,0.13c-0.05,0.06-0.1,0.28-0.08,0.36
				c-0.17,0.06-0.01,0.23-0.02,0.35c0,0.05-0.04,0.11-0.04,0.16c-0.01,0.12,0.02,0.27,0.07,0.37c0.1,0.2,0.27,0.41,0.43,0.54
				c0.19,0.15,0.36,0.57,0.61,0.63c0.18,0.04,0.38-0.1,0.54-0.14c0.18-0.04,0.4,0.01,0.57-0.05c0.22-0.08,0.13-0.34,0.29-0.45
				c0.1-0.07,0.29-0.01,0.41-0.05c0.2-0.07,0.34-0.26,0.38-0.46c0.02-0.08,0.01-0.14,0.04-0.22c0.04-0.1,0.11-0.16,0.09-0.29
				c-0.01-0.06-0.05-0.12-0.06-0.19c-0.02-0.11,0-0.22,0-0.34c0-0.2,0.02-0.38-0.08-0.55c-0.38-0.69-1.24-0.93-1.97-0.79
				c-0.18,0.03-0.29,0.13-0.44,0.21c-0.17,0.09-0.14,0.17-0.32,0.22c-0.08,0.03-0.22,0.12-0.21,0.22c0,0.12,0,0.05,0.01,0.17
				c-0.02,0.01-0.02,0-0.03-0.03"/>
			<path class="st2" d="M23.44-71.65c0.02,0.07,0.01,0.13-0.03,0.19c-0.05,0.1-0.11,0.06-0.17,0.13c-0.05,0.06-0.1,0.28-0.08,0.36
				c-0.17,0.06-0.01,0.23-0.02,0.35c0,0.05-0.04,0.11-0.04,0.16c-0.01,0.12,0.02,0.27,0.07,0.37c0.1,0.2,0.27,0.41,0.43,0.54
				c0.19,0.15,0.36,0.57,0.61,0.63c0.18,0.04,0.38-0.1,0.54-0.14c0.18-0.04,0.4,0.01,0.57-0.05c0.22-0.08,0.13-0.34,0.29-0.45
				c0.1-0.07,0.29-0.01,0.41-0.05c0.2-0.07,0.34-0.26,0.38-0.46c0.02-0.08,0.01-0.14,0.04-0.22c0.04-0.1,0.11-0.16,0.09-0.29
				c-0.01-0.06-0.05-0.12-0.06-0.19c-0.02-0.11,0-0.22,0-0.34c0-0.2,0.02-0.38-0.08-0.55c-0.38-0.69-1.24-0.93-1.97-0.79
				c-0.18,0.03-0.29,0.13-0.44,0.21c-0.17,0.09-0.14,0.17-0.32,0.22c-0.08,0.03-0.22,0.12-0.21,0.22c0,0.12,0,0.05,0.01,0.17
				c-0.02,0.01-0.02,0-0.03-0.03"/>
			<path class="st2" d="M15.77-71.65c0.02,0.07,0.01,0.13-0.03,0.19c-0.05,0.1-0.11,0.06-0.17,0.13c-0.05,0.06-0.1,0.28-0.08,0.36
				c-0.17,0.06-0.01,0.23-0.02,0.35c0,0.05-0.04,0.11-0.04,0.16c-0.01,0.12,0.02,0.27,0.07,0.37c0.1,0.2,0.27,0.41,0.44,0.54
				c0.19,0.15,0.36,0.57,0.61,0.63c0.18,0.04,0.38-0.1,0.54-0.14c0.18-0.04,0.4,0.01,0.57-0.05c0.22-0.08,0.13-0.34,0.29-0.45
				c0.1-0.07,0.29-0.01,0.41-0.05c0.2-0.07,0.34-0.26,0.38-0.46c0.02-0.08,0.01-0.14,0.04-0.22c0.04-0.1,0.11-0.16,0.09-0.29
				c-0.01-0.06-0.05-0.12-0.06-0.19c-0.02-0.11,0-0.22,0-0.34c0-0.2,0.02-0.38-0.08-0.55c-0.38-0.69-1.24-0.93-1.97-0.79
				c-0.18,0.03-0.29,0.13-0.44,0.21c-0.17,0.09-0.14,0.17-0.32,0.22c-0.08,0.03-0.22,0.12-0.21,0.22c0,0.12,0,0.05,0.01,0.17
				c-0.02,0.01-0.02,0-0.03-0.03"/>
			<path class="st2" d="M8.11-71.65c0.02,0.07,0.01,0.13-0.03,0.19c-0.05,0.1-0.11,0.06-0.17,0.13c-0.05,0.06-0.1,0.28-0.08,0.36
				c-0.17,0.06-0.01,0.23-0.02,0.35c0,0.05-0.04,0.11-0.04,0.16c-0.01,0.12,0.02,0.27,0.07,0.37c0.1,0.2,0.27,0.41,0.44,0.54
				c0.19,0.15,0.36,0.57,0.61,0.63c0.18,0.04,0.38-0.1,0.54-0.14c0.18-0.04,0.4,0.01,0.57-0.05c0.22-0.08,0.13-0.34,0.29-0.45
				c0.1-0.07,0.29-0.01,0.41-0.05c0.2-0.07,0.34-0.26,0.38-0.46c0.02-0.08,0.01-0.14,0.04-0.22c0.04-0.1,0.11-0.16,0.09-0.29
				c-0.01-0.06-0.05-0.12-0.06-0.19c-0.02-0.11,0-0.22,0-0.34c0-0.2,0.02-0.38-0.08-0.55c-0.38-0.69-1.24-0.93-1.97-0.79
				c-0.18,0.03-0.29,0.13-0.44,0.21c-0.17,0.09-0.14,0.17-0.32,0.22c-0.08,0.03-0.22,0.12-0.21,0.22c0,0.12,0,0.05,0.01,0.17
				c-0.02,0.01-0.02,0-0.03-0.03"/>
			<path class="st2" d="M0.44-71.65c0.02,0.07,0.01,0.13-0.03,0.19c-0.05,0.1-0.11,0.06-0.17,0.13c-0.05,0.06-0.1,0.28-0.08,0.36
				C0-70.92,0.16-70.75,0.15-70.62c0,0.05-0.04,0.11-0.04,0.16c-0.01,0.12,0.02,0.27,0.07,0.37c0.1,0.2,0.27,0.41,0.44,0.54
				c0.19,0.15,0.36,0.57,0.61,0.63c0.18,0.04,0.38-0.1,0.54-0.14c0.18-0.04,0.4,0.01,0.57-0.05c0.22-0.08,0.13-0.34,0.29-0.45
				c0.1-0.07,0.29-0.01,0.41-0.05c0.2-0.07,0.34-0.26,0.38-0.46c0.02-0.08,0.01-0.14,0.04-0.22c0.04-0.1,0.11-0.16,0.09-0.29
				c-0.01-0.06-0.05-0.12-0.06-0.19c-0.02-0.11,0-0.22,0-0.34c0-0.2,0.02-0.38-0.08-0.55c-0.38-0.69-1.24-0.93-1.97-0.79
				c-0.18,0.03-0.29,0.13-0.44,0.21c-0.17,0.09-0.14,0.17-0.32,0.22c-0.08,0.03-0.22,0.12-0.21,0.22c0,0.12,0,0.05,0.01,0.17
				c-0.02,0.01-0.02,0-0.03-0.03"/>
		</g>
		<g>
			<path class="st2" d="M69.44-71.65c0.02,0.07,0.01,0.13-0.03,0.19c-0.05,0.1-0.11,0.06-0.17,0.13c-0.05,0.06-0.1,0.28-0.08,0.36
				c-0.17,0.06-0.01,0.23-0.02,0.35c0,0.05-0.04,0.11-0.04,0.16c-0.01,0.12,0.02,0.27,0.07,0.37c0.1,0.2,0.27,0.41,0.43,0.54
				c0.19,0.15,0.36,0.57,0.61,0.63c0.18,0.04,0.38-0.1,0.54-0.14c0.18-0.04,0.4,0.01,0.57-0.05c0.22-0.08,0.13-0.34,0.29-0.45
				c0.1-0.07,0.29-0.01,0.41-0.05c0.2-0.07,0.34-0.26,0.38-0.46c0.02-0.08,0.01-0.14,0.04-0.22c0.04-0.1,0.11-0.16,0.09-0.29
				c-0.01-0.06-0.05-0.12-0.06-0.19c-0.02-0.11,0-0.22,0-0.34c0-0.2,0.02-0.38-0.08-0.55c-0.38-0.69-1.24-0.93-1.97-0.79
				c-0.18,0.03-0.29,0.13-0.44,0.21c-0.17,0.09-0.14,0.17-0.32,0.22c-0.08,0.03-0.22,0.12-0.21,0.22c0,0.12,0,0.05,0.01,0.17
				c-0.02,0.01-0.02,0-0.03-0.03"/>
		</g>
		<path class="st2" d="M0.5-71.65c0.02,0.07,0.01,0.13-0.03,0.19c-0.05,0.1-0.11,0.06-0.17,0.13c-0.05,0.06-0.1,0.28-0.08,0.36
			c-0.17,0.06-0.01,0.23-0.02,0.35c0,0.05-0.04,0.11-0.04,0.16c-0.01,0.12,0.02,0.27,0.07,0.37c0.1,0.2,0.27,0.41,0.44,0.54
			c0.19,0.15,0.36,0.57,0.61,0.63c0.18,0.04,0.38-0.1,0.54-0.14c0.18-0.04,0.4,0.01,0.57-0.05c0.22-0.08,0.13-0.34,0.29-0.45
			c0.1-0.07,0.29-0.01,0.41-0.05c0.2-0.07,0.34-0.26,0.38-0.46c0.02-0.08,0.01-0.14,0.04-0.22c0.04-0.1,0.11-0.16,0.09-0.29
			c-0.01-0.06-0.05-0.12-0.06-0.19c-0.02-0.11,0-0.22,0-0.34c0-0.2,0.02-0.38-0.08-0.55c-0.38-0.69-1.24-0.93-1.97-0.79
			c-0.18,0.03-0.29,0.13-0.44,0.21c-0.17,0.09-0.14,0.17-0.32,0.22c-0.08,0.03-0.22,0.12-0.21,0.22c0,0.12,0,0.05,0.01,0.17
			c-0.02,0.01-0.02,0-0.03-0.03"/>
		<g>
			<g>
				<path class="st2" d="M69.44-64c0.02,0.07,0.01,0.13-0.03,0.19c-0.05,0.1-0.11,0.06-0.17,0.13c-0.05,0.06-0.1,0.28-0.08,0.36
					c-0.17,0.06-0.01,0.23-0.02,0.35c0,0.05-0.04,0.11-0.04,0.16c-0.01,0.12,0.02,0.27,0.07,0.37c0.1,0.2,0.27,0.41,0.43,0.54
					c0.19,0.15,0.36,0.57,0.61,0.63c0.18,0.04,0.38-0.1,0.54-0.14c0.18-0.04,0.4,0.01,0.57-0.05c0.22-0.08,0.13-0.34,0.29-0.45
					c0.1-0.07,0.29-0.01,0.41-0.05c0.2-0.07,0.34-0.26,0.38-0.46c0.02-0.08,0.01-0.14,0.04-0.22c0.04-0.1,0.11-0.16,0.09-0.29
					c-0.01-0.06-0.05-0.12-0.06-0.19c-0.02-0.11,0-0.22,0-0.34c0-0.2,0.02-0.38-0.08-0.55c-0.38-0.69-1.24-0.93-1.97-0.79
					c-0.18,0.03-0.29,0.13-0.44,0.21c-0.17,0.09-0.14,0.17-0.32,0.22c-0.08,0.03-0.22,0.12-0.21,0.22c0,0.12,0,0.05,0.01,0.17
					c-0.02,0.01-0.02,0-0.03-0.03"/>
				<path class="st2" d="M61.78-64c0.02,0.07,0.01,0.13-0.03,0.19c-0.05,0.1-0.11,0.06-0.17,0.13c-0.05,0.06-0.1,0.28-0.08,0.36
					c-0.17,0.06-0.01,0.23-0.02,0.35c0,0.05-0.04,0.11-0.04,0.16c-0.01,0.12,0.02,0.27,0.07,0.37c0.1,0.2,0.27,0.41,0.44,0.54
					c0.19,0.15,0.36,0.57,0.61,0.63c0.18,0.04,0.38-0.1,0.54-0.14c0.18-0.04,0.4,0.01,0.57-0.05c0.22-0.08,0.13-0.34,0.29-0.45
					c0.1-0.07,0.29-0.01,0.41-0.05c0.2-0.07,0.34-0.26,0.38-0.46c0.02-0.08,0.01-0.14,0.04-0.22c0.04-0.1,0.11-0.16,0.09-0.29
					c-0.01-0.06-0.05-0.12-0.06-0.19c-0.02-0.11,0-0.22,0-0.34c0-0.2,0.02-0.38-0.08-0.55c-0.38-0.69-1.24-0.93-1.97-0.79
					c-0.18,0.03-0.29,0.13-0.44,0.21c-0.17,0.09-0.14,0.17-0.32,0.22c-0.08,0.03-0.22,0.12-0.21,0.22c0,0.12,0,0.05,0.01,0.17
					c-0.02,0.01-0.02,0-0.03-0.03"/>
				<path class="st2" d="M54.12-64c0.02,0.07,0.01,0.13-0.03,0.19c-0.05,0.1-0.11,0.06-0.17,0.13c-0.05,0.06-0.1,0.28-0.08,0.36
					c-0.17,0.06-0.01,0.23-0.02,0.35c0,0.05-0.04,0.11-0.04,0.16c-0.01,0.12,0.02,0.27,0.07,0.37c0.1,0.2,0.27,0.41,0.44,0.54
					c0.19,0.15,0.36,0.57,0.61,0.63c0.18,0.04,0.38-0.1,0.54-0.14c0.18-0.04,0.4,0.01,0.57-0.05c0.22-0.08,0.13-0.34,0.29-0.45
					c0.1-0.07,0.29-0.01,0.41-0.05c0.2-0.07,0.34-0.26,0.38-0.46c0.02-0.08,0.01-0.14,0.04-0.22c0.04-0.1,0.11-0.16,0.09-0.29
					c-0.01-0.06-0.05-0.12-0.06-0.19c-0.02-0.11,0-0.22,0-0.34c0-0.2,0.02-0.38-0.08-0.55c-0.38-0.69-1.24-0.93-1.97-0.79
					c-0.18,0.03-0.29,0.13-0.44,0.21c-0.17,0.09-0.14,0.17-0.32,0.22c-0.08,0.03-0.22,0.12-0.21,0.22c0,0.12,0,0.05,0.01,0.17
					c-0.02,0.01-0.02,0-0.03-0.03"/>
				<path class="st2" d="M46.46-64c0.02,0.07,0.01,0.13-0.03,0.19c-0.05,0.1-0.11,0.06-0.16,0.13c-0.05,0.06-0.1,0.28-0.08,0.36
					c-0.17,0.06-0.01,0.23-0.02,0.35c0,0.05-0.04,0.11-0.05,0.16c-0.01,0.12,0.02,0.27,0.07,0.37c0.1,0.2,0.27,0.41,0.44,0.54
					c0.19,0.15,0.36,0.57,0.61,0.63c0.18,0.04,0.38-0.1,0.54-0.14c0.18-0.04,0.4,0.01,0.57-0.05c0.22-0.08,0.13-0.34,0.29-0.45
					c0.1-0.07,0.29-0.01,0.41-0.05c0.2-0.07,0.34-0.26,0.38-0.46c0.02-0.08,0.01-0.14,0.04-0.22c0.04-0.1,0.11-0.16,0.09-0.29
					c-0.01-0.06-0.05-0.12-0.06-0.19c-0.02-0.11,0-0.22,0-0.34c0-0.2,0.02-0.38-0.08-0.55c-0.38-0.69-1.24-0.93-1.97-0.79
					c-0.18,0.03-0.29,0.13-0.44,0.21c-0.17,0.09-0.14,0.17-0.32,0.22c-0.08,0.03-0.22,0.12-0.21,0.22c0,0.12,0,0.05,0.01,0.17
					c-0.02,0.01-0.02,0-0.03-0.03"/>
				<path class="st2" d="M38.8-64c0.02,0.07,0.01,0.13-0.03,0.19c-0.05,0.1-0.11,0.06-0.17,0.13c-0.05,0.06-0.1,0.28-0.08,0.36
					c-0.17,0.06-0.01,0.23-0.02,0.35c0,0.05-0.04,0.11-0.04,0.16c-0.01,0.12,0.02,0.27,0.07,0.37c0.1,0.2,0.27,0.41,0.44,0.54
					c0.19,0.15,0.36,0.57,0.61,0.63c0.18,0.04,0.38-0.1,0.54-0.14c0.18-0.04,0.4,0.01,0.57-0.05c0.22-0.08,0.13-0.34,0.29-0.45
					c0.1-0.07,0.29-0.01,0.41-0.05c0.2-0.07,0.34-0.26,0.38-0.46c0.02-0.08,0.01-0.14,0.04-0.22c0.04-0.1,0.11-0.16,0.09-0.29
					c-0.01-0.06-0.05-0.12-0.06-0.19c-0.02-0.11,0-0.22,0-0.34c0-0.2,0.02-0.38-0.08-0.55c-0.38-0.69-1.24-0.93-1.97-0.79
					c-0.18,0.03-0.29,0.13-0.44,0.21c-0.17,0.09-0.14,0.17-0.32,0.22c-0.08,0.03-0.22,0.12-0.21,0.22c0,0.12,0,0.05,0.01,0.17
					c-0.02,0.01-0.02,0-0.03-0.03"/>
				<path class="st2" d="M31.14-64c0.02,0.07,0.01,0.13-0.03,0.19c-0.05,0.1-0.11,0.06-0.16,0.13c-0.05,0.06-0.1,0.28-0.08,0.36
					c-0.17,0.06-0.01,0.23-0.02,0.35c0,0.05-0.04,0.11-0.05,0.16c-0.01,0.12,0.02,0.27,0.07,0.37c0.1,0.2,0.27,0.41,0.44,0.54
					c0.19,0.15,0.36,0.57,0.61,0.63c0.18,0.04,0.38-0.1,0.54-0.14c0.18-0.04,0.4,0.01,0.57-0.05c0.22-0.08,0.13-0.34,0.29-0.45
					c0.1-0.07,0.29-0.01,0.41-0.05c0.2-0.07,0.34-0.26,0.38-0.46c0.02-0.08,0.01-0.14,0.04-0.22c0.04-0.1,0.11-0.16,0.09-0.29
					c-0.01-0.06-0.05-0.12-0.06-0.19c-0.02-0.11,0-0.22,0-0.34c0-0.2,0.02-0.38-0.08-0.55c-0.38-0.69-1.24-0.93-1.97-0.79
					c-0.18,0.03-0.29,0.13-0.44,0.21c-0.17,0.09-0.14,0.17-0.32,0.22c-0.08,0.03-0.22,0.12-0.21,0.22c0,0.12,0,0.05,0.01,0.17
					c-0.02,0.01-0.02,0-0.03-0.03"/>
				<path class="st2" d="M23.48-64c0.02,0.07,0.01,0.13-0.03,0.19c-0.05,0.1-0.11,0.06-0.17,0.13c-0.05,0.06-0.1,0.28-0.08,0.36
					c-0.17,0.06-0.01,0.23-0.02,0.35c0,0.05-0.04,0.11-0.04,0.16c-0.01,0.12,0.02,0.27,0.07,0.37c0.1,0.2,0.27,0.41,0.44,0.54
					c0.19,0.15,0.36,0.57,0.61,0.63c0.18,0.04,0.38-0.1,0.54-0.14c0.18-0.04,0.4,0.01,0.57-0.05c0.22-0.08,0.13-0.34,0.29-0.45
					c0.1-0.07,0.29-0.01,0.41-0.05c0.2-0.07,0.34-0.26,0.38-0.46c0.02-0.08,0.01-0.14,0.04-0.22c0.04-0.1,0.11-0.16,0.09-0.29
					c-0.01-0.06-0.05-0.12-0.06-0.19c-0.02-0.11,0-0.22,0-0.34c0-0.2,0.02-0.38-0.08-0.55c-0.38-0.69-1.24-0.93-1.97-0.79
					c-0.18,0.03-0.29,0.13-0.44,0.21c-0.17,0.09-0.14,0.17-0.32,0.22c-0.08,0.03-0.22,0.12-0.21,0.22c0,0.12,0,0.05,0.01,0.17
					c-0.02,0.01-0.02,0-0.03-0.03"/>
				<path class="st2" d="M15.82-64c0.02,0.07,0.01,0.13-0.03,0.19c-0.05,0.1-0.11,0.06-0.16,0.13c-0.05,0.06-0.1,0.28-0.08,0.36
					c-0.17,0.06-0.01,0.23-0.02,0.35c0,0.05-0.04,0.11-0.05,0.16c-0.01,0.12,0.02,0.27,0.07,0.37c0.1,0.2,0.27,0.41,0.44,0.54
					c0.19,0.15,0.36,0.57,0.61,0.63c0.18,0.04,0.38-0.1,0.54-0.14c0.18-0.04,0.4,0.01,0.57-0.05c0.22-0.08,0.13-0.34,0.29-0.45
					c0.1-0.07,0.29-0.01,0.41-0.05c0.2-0.07,0.34-0.26,0.38-0.46c0.02-0.08,0.01-0.14,0.04-0.22c0.04-0.1,0.11-0.16,0.09-0.29
					c-0.01-0.06-0.05-0.12-0.06-0.19c-0.02-0.11,0-0.22,0-0.34c0-0.2,0.02-0.38-0.08-0.55c-0.38-0.69-1.24-0.93-1.97-0.79
					c-0.18,0.03-0.29,0.13-0.44,0.21c-0.17,0.09-0.14,0.17-0.32,0.22c-0.08,0.03-0.22,0.12-0.21,0.22c0,0.12,0,0.05,0.01,0.17
					c-0.02,0.01-0.02,0-0.03-0.03"/>
				<path class="st2" d="M8.16-64c0.02,0.07,0.01,0.13-0.03,0.19c-0.05,0.1-0.11,0.06-0.17,0.13c-0.05,0.06-0.1,0.28-0.08,0.36
					c-0.17,0.06-0.01,0.23-0.02,0.35c0,0.05-0.04,0.11-0.04,0.16c-0.01,0.12,0.02,0.27,0.07,0.37c0.1,0.2,0.27,0.41,0.44,0.54
					c0.19,0.15,0.36,0.57,0.61,0.63c0.18,0.04,0.38-0.1,0.54-0.14c0.18-0.04,0.4,0.01,0.57-0.05c0.22-0.08,0.13-0.34,0.29-0.45
					c0.1-0.07,0.29-0.01,0.41-0.05c0.2-0.07,0.34-0.26,0.38-0.46c0.02-0.08,0.01-0.14,0.04-0.22c0.04-0.1,0.11-0.16,0.09-0.29
					c-0.01-0.06-0.05-0.12-0.06-0.19c-0.02-0.11,0-0.22,0-0.34c0-0.2,0.02-0.38-0.08-0.55c-0.38-0.69-1.24-0.93-1.97-0.79
					c-0.18,0.03-0.29,0.13-0.44,0.21c-0.17,0.09-0.14,0.17-0.32,0.22c-0.08,0.03-0.22,0.12-0.21,0.22c0,0.12,0,0.05,0.01,0.17
					c-0.02,0.01-0.02,0-0.03-0.03"/>
				<path class="st2" d="M0.5-64c0.02,0.07,0.01,0.13-0.03,0.19c-0.05,0.1-0.11,0.06-0.17,0.13c-0.05,0.06-0.1,0.28-0.08,0.36
					c-0.17,0.06-0.01,0.23-0.02,0.35c0,0.05-0.04,0.11-0.04,0.16c-0.01,0.12,0.02,0.27,0.07,0.37c0.1,0.2,0.27,0.41,0.44,0.54
					c0.19,0.15,0.36,0.57,0.61,0.63c0.18,0.04,0.38-0.1,0.54-0.14c0.18-0.04,0.4,0.01,0.57-0.05c0.22-0.08,0.13-0.34,0.29-0.45
					c0.1-0.07,0.29-0.01,0.41-0.05c0.2-0.07,0.34-0.26,0.38-0.46c0.02-0.08,0.01-0.14,0.04-0.22c0.04-0.1,0.11-0.16,0.09-0.29
					C3.58-63,3.54-63.05,3.53-63.12c-0.02-0.11,0-0.22,0-0.34c0-0.2,0.02-0.38-0.08-0.55c-0.38-0.69-1.24-0.93-1.97-0.79
					c-0.18,0.03-0.29,0.13-0.44,0.21c-0.17,0.09-0.14,0.17-0.32,0.22c-0.08,0.03-0.22,0.12-0.21,0.22c0,0.12,0,0.05,0.01,0.17
					c-0.02,0.01-0.02,0-0.03-0.03"/>
			</g>
			<g>
				<path class="st2" d="M69.44-56.35c0.02,0.07,0.01,0.13-0.03,0.19c-0.05,0.1-0.11,0.06-0.17,0.13c-0.05,0.06-0.1,0.28-0.08,0.36
					c-0.17,0.06-0.01,0.23-0.02,0.35c0,0.05-0.04,0.11-0.04,0.16c-0.01,0.12,0.02,0.27,0.07,0.37c0.1,0.2,0.27,0.41,0.43,0.54
					c0.19,0.15,0.36,0.57,0.61,0.63c0.18,0.04,0.38-0.1,0.54-0.14c0.18-0.04,0.4,0.01,0.57-0.05c0.22-0.08,0.13-0.34,0.29-0.45
					c0.1-0.07,0.29-0.01,0.41-0.05c0.2-0.07,0.34-0.26,0.38-0.46c0.02-0.08,0.01-0.14,0.04-0.22c0.04-0.1,0.11-0.16,0.09-0.29
					c-0.01-0.06-0.05-0.12-0.06-0.19c-0.02-0.11,0-0.22,0-0.34c0-0.2,0.02-0.38-0.08-0.55c-0.38-0.69-1.24-0.93-1.97-0.79
					c-0.18,0.03-0.29,0.13-0.44,0.21c-0.17,0.09-0.14,0.17-0.32,0.22c-0.08,0.03-0.22,0.12-0.21,0.22c0,0.12,0,0.05,0.01,0.17
					c-0.02,0.01-0.02,0-0.03-0.03"/>
				<path class="st2" d="M61.78-56.35c0.02,0.07,0.01,0.13-0.03,0.19c-0.05,0.1-0.11,0.06-0.17,0.13c-0.05,0.06-0.1,0.28-0.08,0.36
					c-0.17,0.06-0.01,0.23-0.02,0.35c0,0.05-0.04,0.11-0.04,0.16c-0.01,0.12,0.02,0.27,0.07,0.37c0.1,0.2,0.27,0.41,0.44,0.54
					c0.19,0.15,0.36,0.57,0.61,0.63c0.18,0.04,0.38-0.1,0.54-0.14c0.18-0.04,0.4,0.01,0.57-0.05c0.22-0.08,0.13-0.34,0.29-0.45
					c0.1-0.07,0.29-0.01,0.41-0.05c0.2-0.07,0.34-0.26,0.38-0.46c0.02-0.08,0.01-0.14,0.04-0.22c0.04-0.1,0.11-0.16,0.09-0.29
					c-0.01-0.06-0.05-0.12-0.06-0.19c-0.02-0.11,0-0.22,0-0.34c0-0.2,0.02-0.38-0.08-0.55c-0.38-0.69-1.24-0.93-1.97-0.79
					c-0.18,0.03-0.29,0.13-0.44,0.21c-0.17,0.09-0.14,0.17-0.32,0.22c-0.08,0.03-0.22,0.12-0.21,0.22c0,0.12,0,0.05,0.01,0.17
					c-0.02,0.01-0.02,0-0.03-0.03"/>
				<path class="st2" d="M54.12-56.35c0.02,0.07,0.01,0.13-0.03,0.19c-0.05,0.1-0.11,0.06-0.17,0.13c-0.05,0.06-0.1,0.28-0.08,0.36
					c-0.17,0.06-0.01,0.23-0.02,0.35c0,0.05-0.04,0.11-0.04,0.16c-0.01,0.12,0.02,0.27,0.07,0.37c0.1,0.2,0.27,0.41,0.44,0.54
					c0.19,0.15,0.36,0.57,0.61,0.63c0.18,0.04,0.38-0.1,0.54-0.14c0.18-0.04,0.4,0.01,0.57-0.05c0.22-0.08,0.13-0.34,0.29-0.45
					c0.1-0.07,0.29-0.01,0.41-0.05c0.2-0.07,0.34-0.26,0.38-0.46c0.02-0.08,0.01-0.14,0.04-0.22c0.04-0.1,0.11-0.16,0.09-0.29
					c-0.01-0.06-0.05-0.12-0.06-0.19c-0.02-0.11,0-0.22,0-0.34c0-0.2,0.02-0.38-0.08-0.55c-0.38-0.69-1.24-0.93-1.97-0.79
					c-0.18,0.03-0.29,0.13-0.44,0.21c-0.17,0.09-0.14,0.17-0.32,0.22c-0.08,0.03-0.22,0.12-0.21,0.22c0,0.12,0,0.05,0.01,0.17
					c-0.02,0.01-0.02,0-0.03-0.03"/>
				<path class="st2" d="M46.46-56.35c0.02,0.07,0.01,0.13-0.03,0.19c-0.05,0.1-0.11,0.06-0.16,0.13c-0.05,0.06-0.1,0.28-0.08,0.36
					c-0.17,0.06-0.01,0.23-0.02,0.35c0,0.05-0.04,0.11-0.05,0.16c-0.01,0.12,0.02,0.27,0.07,0.37c0.1,0.2,0.27,0.41,0.44,0.54
					c0.19,0.15,0.36,0.57,0.61,0.63c0.18,0.04,0.38-0.1,0.54-0.14c0.18-0.04,0.4,0.01,0.57-0.05c0.22-0.08,0.13-0.34,0.29-0.45
					c0.1-0.07,0.29-0.01,0.41-0.05c0.2-0.07,0.34-0.26,0.38-0.46c0.02-0.08,0.01-0.14,0.04-0.22c0.04-0.1,0.11-0.16,0.09-0.29
					c-0.01-0.06-0.05-0.12-0.06-0.19c-0.02-0.11,0-0.22,0-0.34c0-0.2,0.02-0.38-0.08-0.55c-0.38-0.69-1.24-0.93-1.97-0.79
					c-0.18,0.03-0.29,0.13-0.44,0.21c-0.17,0.09-0.14,0.17-0.32,0.22c-0.08,0.03-0.22,0.12-0.21,0.22c0,0.12,0,0.05,0.01,0.17
					c-0.02,0.01-0.02,0-0.03-0.03"/>
				<path class="st2" d="M38.8-56.35c0.02,0.07,0.01,0.13-0.03,0.19c-0.05,0.1-0.11,0.06-0.17,0.13c-0.05,0.06-0.1,0.28-0.08,0.36
					c-0.17,0.06-0.01,0.23-0.02,0.35c0,0.05-0.04,0.11-0.04,0.16c-0.01,0.12,0.02,0.27,0.07,0.37c0.1,0.2,0.27,0.41,0.44,0.54
					c0.19,0.15,0.36,0.57,0.61,0.63c0.18,0.04,0.38-0.1,0.54-0.14c0.18-0.04,0.4,0.01,0.57-0.05c0.22-0.08,0.13-0.34,0.29-0.45
					c0.1-0.07,0.29-0.01,0.41-0.05c0.2-0.07,0.34-0.26,0.38-0.46c0.02-0.08,0.01-0.14,0.04-0.22c0.04-0.1,0.11-0.16,0.09-0.29
					c-0.01-0.06-0.05-0.12-0.06-0.19c-0.02-0.11,0-0.22,0-0.34c0-0.2,0.02-0.38-0.08-0.55c-0.38-0.69-1.24-0.93-1.97-0.79
					c-0.18,0.03-0.29,0.13-0.44,0.21c-0.17,0.09-0.14,0.17-0.32,0.22c-0.08,0.03-0.22,0.12-0.21,0.22c0,0.12,0,0.05,0.01,0.17
					c-0.02,0.01-0.02,0-0.03-0.03"/>
				<path class="st2" d="M31.14-56.35c0.02,0.07,0.01,0.13-0.03,0.19c-0.05,0.1-0.11,0.06-0.16,0.13c-0.05,0.06-0.1,0.28-0.08,0.36
					c-0.17,0.06-0.01,0.23-0.02,0.35c0,0.05-0.04,0.11-0.05,0.16c-0.01,0.12,0.02,0.27,0.07,0.37c0.1,0.2,0.27,0.41,0.44,0.54
					c0.19,0.15,0.36,0.57,0.61,0.63c0.18,0.04,0.38-0.1,0.54-0.14c0.18-0.04,0.4,0.01,0.57-0.05c0.22-0.08,0.13-0.34,0.29-0.45
					c0.1-0.07,0.29-0.01,0.41-0.05c0.2-0.07,0.34-0.26,0.38-0.46c0.02-0.08,0.01-0.14,0.04-0.22c0.04-0.1,0.11-0.16,0.09-0.29
					c-0.01-0.06-0.05-0.12-0.06-0.19c-0.02-0.11,0-0.22,0-0.34c0-0.2,0.02-0.38-0.08-0.55c-0.38-0.69-1.24-0.93-1.97-0.79
					c-0.18,0.03-0.29,0.13-0.44,0.21c-0.17,0.09-0.14,0.17-0.32,0.22c-0.08,0.03-0.22,0.12-0.21,0.22c0,0.12,0,0.05,0.01,0.17
					c-0.02,0.01-0.02,0-0.03-0.03"/>
				<path class="st2" d="M23.48-56.35c0.02,0.07,0.01,0.13-0.03,0.19c-0.05,0.1-0.11,0.06-0.17,0.13c-0.05,0.06-0.1,0.28-0.08,0.36
					c-0.17,0.06-0.01,0.23-0.02,0.35c0,0.05-0.04,0.11-0.04,0.16c-0.01,0.12,0.02,0.27,0.07,0.37c0.1,0.2,0.27,0.41,0.44,0.54
					c0.19,0.15,0.36,0.57,0.61,0.63c0.18,0.04,0.38-0.1,0.54-0.14c0.18-0.04,0.4,0.01,0.57-0.05c0.22-0.08,0.13-0.34,0.29-0.45
					c0.1-0.07,0.29-0.01,0.41-0.05c0.2-0.07,0.34-0.26,0.38-0.46c0.02-0.08,0.01-0.14,0.04-0.22c0.04-0.1,0.11-0.16,0.09-0.29
					c-0.01-0.06-0.05-0.12-0.06-0.19c-0.02-0.11,0-0.22,0-0.34c0-0.2,0.02-0.38-0.08-0.55c-0.38-0.69-1.24-0.93-1.97-0.79
					c-0.18,0.03-0.29,0.13-0.44,0.21c-0.17,0.09-0.14,0.17-0.32,0.22c-0.08,0.03-0.22,0.12-0.21,0.22c0,0.12,0,0.05,0.01,0.17
					c-0.02,0.01-0.02,0-0.03-0.03"/>
				<path class="st2" d="M15.82-56.35c0.02,0.07,0.01,0.13-0.03,0.19c-0.05,0.1-0.11,0.06-0.16,0.13c-0.05,0.06-0.1,0.28-0.08,0.36
					c-0.17,0.06-0.01,0.23-0.02,0.35c0,0.05-0.04,0.11-0.05,0.16c-0.01,0.12,0.02,0.27,0.07,0.37c0.1,0.2,0.27,0.41,0.44,0.54
					c0.19,0.15,0.36,0.57,0.61,0.63c0.18,0.04,0.38-0.1,0.54-0.14c0.18-0.04,0.4,0.01,0.57-0.05c0.22-0.08,0.13-0.34,0.29-0.45
					c0.1-0.07,0.29-0.01,0.41-0.05c0.2-0.07,0.34-0.26,0.38-0.46c0.02-0.08,0.01-0.14,0.04-0.22c0.04-0.1,0.11-0.16,0.09-0.29
					c-0.01-0.06-0.05-0.12-0.06-0.19c-0.02-0.11,0-0.22,0-0.34c0-0.2,0.02-0.38-0.08-0.55c-0.38-0.69-1.24-0.93-1.97-0.79
					c-0.18,0.03-0.29,0.13-0.44,0.21c-0.17,0.09-0.14,0.17-0.32,0.22c-0.08,0.03-0.22,0.12-0.21,0.22c0,0.12,0,0.05,0.01,0.17
					c-0.02,0.01-0.02,0-0.03-0.03"/>
				<path class="st2" d="M8.16-56.35c0.02,0.07,0.01,0.13-0.03,0.19c-0.05,0.1-0.11,0.06-0.17,0.13c-0.05,0.06-0.1,0.28-0.08,0.36
					c-0.17,0.06-0.01,0.23-0.02,0.35c0,0.05-0.04,0.11-0.04,0.16c-0.01,0.12,0.02,0.27,0.07,0.37c0.1,0.2,0.27,0.41,0.44,0.54
					c0.19,0.15,0.36,0.57,0.61,0.63c0.18,0.04,0.38-0.1,0.54-0.14c0.18-0.04,0.4,0.01,0.57-0.05c0.22-0.08,0.13-0.34,0.29-0.45
					c0.1-0.07,0.29-0.01,0.41-0.05c0.2-0.07,0.34-0.26,0.38-0.46c0.02-0.08,0.01-0.14,0.04-0.22c0.04-0.1,0.11-0.16,0.09-0.29
					c-0.01-0.06-0.05-0.12-0.06-0.19c-0.02-0.11,0-0.22,0-0.34c0-0.2,0.02-0.38-0.08-0.55c-0.38-0.69-1.24-0.93-1.97-0.79
					c-0.18,0.03-0.29,0.13-0.44,0.21c-0.17,0.09-0.14,0.17-0.32,0.22c-0.08,0.03-0.22,0.12-0.21,0.22c0,0.12,0,0.05,0.01,0.17
					c-0.02,0.01-0.02,0-0.03-0.03"/>
				<path class="st2" d="M0.5-56.35c0.02,0.07,0.01,0.13-0.03,0.19c-0.05,0.1-0.11,0.06-0.17,0.13c-0.05,0.06-0.1,0.28-0.08,0.36
					c-0.17,0.06-0.01,0.23-0.02,0.35c0,0.05-0.04,0.11-0.04,0.16c-0.01,0.12,0.02,0.27,0.07,0.37c0.1,0.2,0.27,0.41,0.44,0.54
					c0.19,0.15,0.36,0.57,0.61,0.63c0.18,0.04,0.38-0.1,0.54-0.14c0.18-0.04,0.4,0.01,0.57-0.05c0.22-0.08,0.13-0.34,0.29-0.45
					c0.1-0.07,0.29-0.01,0.41-0.05c0.2-0.07,0.34-0.26,0.38-0.46c0.02-0.08,0.01-0.14,0.04-0.22c0.04-0.1,0.11-0.16,0.09-0.29
					c-0.01-0.06-0.05-0.12-0.06-0.19c-0.02-0.11,0-0.22,0-0.34c0-0.2,0.02-0.38-0.08-0.55c-0.38-0.69-1.24-0.93-1.97-0.79
					c-0.18,0.03-0.29,0.13-0.44,0.21c-0.17,0.09-0.14,0.17-0.32,0.22c-0.08,0.03-0.22,0.12-0.21,0.22c0,0.12,0,0.05,0.01,0.17
					c-0.02,0.01-0.02,0-0.03-0.03"/>
			</g>
			<g>
				<path class="st2" d="M69.44-48.7c0.02,0.07,0.01,0.13-0.03,0.19c-0.05,0.1-0.11,0.06-0.17,0.13c-0.05,0.06-0.1,0.28-0.08,0.36
					c-0.17,0.06-0.01,0.23-0.02,0.35c0,0.05-0.04,0.11-0.04,0.16c-0.01,0.12,0.02,0.27,0.07,0.37c0.1,0.2,0.27,0.41,0.43,0.54
					c0.19,0.15,0.36,0.57,0.61,0.63c0.18,0.04,0.38-0.1,0.54-0.14c0.18-0.04,0.4,0.01,0.57-0.05c0.22-0.08,0.13-0.34,0.29-0.45
					c0.1-0.07,0.29-0.01,0.41-0.05c0.2-0.07,0.34-0.26,0.38-0.46c0.02-0.08,0.01-0.14,0.04-0.22c0.04-0.1,0.11-0.16,0.09-0.29
					c-0.01-0.06-0.05-0.12-0.06-0.19c-0.02-0.11,0-0.22,0-0.34c0-0.2,0.02-0.38-0.08-0.55c-0.38-0.69-1.24-0.93-1.97-0.79
					c-0.18,0.03-0.29,0.13-0.44,0.21c-0.17,0.09-0.14,0.17-0.32,0.22c-0.08,0.03-0.22,0.12-0.21,0.22c0,0.12,0,0.05,0.01,0.17
					c-0.02,0.01-0.02,0-0.03-0.03"/>
				<path class="st2" d="M61.78-48.7c0.02,0.07,0.01,0.13-0.03,0.19c-0.05,0.1-0.11,0.06-0.17,0.13c-0.05,0.06-0.1,0.28-0.08,0.36
					c-0.17,0.06-0.01,0.23-0.02,0.35c0,0.05-0.04,0.11-0.04,0.16c-0.01,0.12,0.02,0.27,0.07,0.37c0.1,0.2,0.27,0.41,0.44,0.54
					c0.19,0.15,0.36,0.57,0.61,0.63c0.18,0.04,0.38-0.1,0.54-0.14c0.18-0.04,0.4,0.01,0.57-0.05c0.22-0.08,0.13-0.34,0.29-0.45
					c0.1-0.07,0.29-0.01,0.41-0.05c0.2-0.07,0.34-0.26,0.38-0.46c0.02-0.08,0.01-0.14,0.04-0.22c0.04-0.1,0.11-0.16,0.09-0.29
					c-0.01-0.06-0.05-0.12-0.06-0.19c-0.02-0.11,0-0.22,0-0.34c0-0.2,0.02-0.38-0.08-0.55c-0.38-0.69-1.24-0.93-1.97-0.79
					c-0.18,0.03-0.29,0.13-0.44,0.21c-0.17,0.09-0.14,0.17-0.32,0.22c-0.08,0.03-0.22,0.12-0.21,0.22c0,0.12,0,0.05,0.01,0.17
					c-0.02,0.01-0.02,0-0.03-0.03"/>
				<path class="st2" d="M54.12-48.7c0.02,0.07,0.01,0.13-0.03,0.19c-0.05,0.1-0.11,0.06-0.17,0.13c-0.05,0.06-0.1,0.28-0.08,0.36
					c-0.17,0.06-0.01,0.23-0.02,0.35c0,0.05-0.04,0.11-0.04,0.16c-0.01,0.12,0.02,0.27,0.07,0.37c0.1,0.2,0.27,0.41,0.44,0.54
					c0.19,0.15,0.36,0.57,0.61,0.63c0.18,0.04,0.38-0.1,0.54-0.14c0.18-0.04,0.4,0.01,0.57-0.05c0.22-0.08,0.13-0.34,0.29-0.45
					c0.1-0.07,0.29-0.01,0.41-0.05c0.2-0.07,0.34-0.26,0.38-0.46c0.02-0.08,0.01-0.14,0.04-0.22c0.04-0.1,0.11-0.16,0.09-0.29
					c-0.01-0.06-0.05-0.12-0.06-0.19c-0.02-0.11,0-0.22,0-0.34c0-0.2,0.02-0.38-0.08-0.55c-0.38-0.69-1.24-0.93-1.97-0.79
					c-0.18,0.03-0.29,0.13-0.44,0.21c-0.17,0.09-0.14,0.17-0.32,0.22c-0.08,0.03-0.22,0.12-0.21,0.22c0,0.12,0,0.05,0.01,0.17
					c-0.02,0.01-0.02,0-0.03-0.03"/>
				<path class="st2" d="M46.46-48.7c0.02,0.07,0.01,0.13-0.03,0.19c-0.05,0.1-0.11,0.06-0.16,0.13c-0.05,0.06-0.1,0.28-0.08,0.36
					c-0.17,0.06-0.01,0.23-0.02,0.35c0,0.05-0.04,0.11-0.05,0.16c-0.01,0.12,0.02,0.27,0.07,0.37c0.1,0.2,0.27,0.41,0.44,0.54
					c0.19,0.15,0.36,0.57,0.61,0.63c0.18,0.04,0.38-0.1,0.54-0.14c0.18-0.04,0.4,0.01,0.57-0.05c0.22-0.08,0.13-0.34,0.29-0.45
					c0.1-0.07,0.29-0.01,0.41-0.05c0.2-0.07,0.34-0.26,0.38-0.46c0.02-0.08,0.01-0.14,0.04-0.22c0.04-0.1,0.11-0.16,0.09-0.29
					c-0.01-0.06-0.05-0.12-0.06-0.19c-0.02-0.11,0-0.22,0-0.34c0-0.2,0.02-0.38-0.08-0.55c-0.38-0.69-1.24-0.93-1.97-0.79
					c-0.18,0.03-0.29,0.13-0.44,0.21c-0.17,0.09-0.14,0.17-0.32,0.22c-0.08,0.03-0.22,0.12-0.21,0.22c0,0.12,0,0.05,0.01,0.17
					c-0.02,0.01-0.02,0-0.03-0.03"/>
				<path class="st2" d="M38.8-48.7c0.02,0.07,0.01,0.13-0.03,0.19c-0.05,0.1-0.11,0.06-0.17,0.13c-0.05,0.06-0.1,0.28-0.08,0.36
					c-0.17,0.06-0.01,0.23-0.02,0.35c0,0.05-0.04,0.11-0.04,0.16c-0.01,0.12,0.02,0.27,0.07,0.37c0.1,0.2,0.27,0.41,0.44,0.54
					c0.19,0.15,0.36,0.57,0.61,0.63c0.18,0.04,0.38-0.1,0.54-0.14c0.18-0.04,0.4,0.01,0.57-0.05c0.22-0.08,0.13-0.34,0.29-0.45
					c0.1-0.07,0.29-0.01,0.41-0.05c0.2-0.07,0.34-0.26,0.38-0.46c0.02-0.08,0.01-0.14,0.04-0.22c0.04-0.1,0.11-0.16,0.09-0.29
					c-0.01-0.06-0.05-0.12-0.06-0.19c-0.02-0.11,0-0.22,0-0.34c0-0.2,0.02-0.38-0.08-0.55c-0.38-0.69-1.24-0.93-1.97-0.79
					c-0.18,0.03-0.29,0.13-0.44,0.21c-0.17,0.09-0.14,0.17-0.32,0.22c-0.08,0.03-0.22,0.12-0.21,0.22c0,0.12,0,0.05,0.01,0.17
					c-0.02,0.01-0.02,0-0.03-0.03"/>
				<path class="st2" d="M31.14-48.7c0.02,0.07,0.01,0.13-0.03,0.19c-0.05,0.1-0.11,0.06-0.16,0.13c-0.05,0.06-0.1,0.28-0.08,0.36
					c-0.17,0.06-0.01,0.23-0.02,0.35c0,0.05-0.04,0.11-0.05,0.16c-0.01,0.12,0.02,0.27,0.07,0.37c0.1,0.2,0.27,0.41,0.44,0.54
					c0.19,0.15,0.36,0.57,0.61,0.63c0.18,0.04,0.38-0.1,0.54-0.14c0.18-0.04,0.4,0.01,0.57-0.05c0.22-0.08,0.13-0.34,0.29-0.45
					c0.1-0.07,0.29-0.01,0.41-0.05c0.2-0.07,0.34-0.26,0.38-0.46c0.02-0.08,0.01-0.14,0.04-0.22c0.04-0.1,0.11-0.16,0.09-0.29
					c-0.01-0.06-0.05-0.12-0.06-0.19c-0.02-0.11,0-0.22,0-0.34c0-0.2,0.02-0.38-0.08-0.55c-0.38-0.69-1.24-0.93-1.97-0.79
					c-0.18,0.03-0.29,0.13-0.44,0.21c-0.17,0.09-0.14,0.17-0.32,0.22c-0.08,0.03-0.22,0.12-0.21,0.22c0,0.12,0,0.05,0.01,0.17
					c-0.02,0.01-0.02,0-0.03-0.03"/>
				<path class="st2" d="M23.48-48.7c0.02,0.07,0.01,0.13-0.03,0.19c-0.05,0.1-0.11,0.06-0.17,0.13c-0.05,0.06-0.1,0.28-0.08,0.36
					c-0.17,0.06-0.01,0.23-0.02,0.35c0,0.05-0.04,0.11-0.04,0.16c-0.01,0.12,0.02,0.27,0.07,0.37c0.1,0.2,0.27,0.41,0.44,0.54
					c0.19,0.15,0.36,0.57,0.61,0.63c0.18,0.04,0.38-0.1,0.54-0.14c0.18-0.04,0.4,0.01,0.57-0.05c0.22-0.08,0.13-0.34,0.29-0.45
					c0.1-0.07,0.29-0.01,0.41-0.05c0.2-0.07,0.34-0.26,0.38-0.46c0.02-0.08,0.01-0.14,0.04-0.22c0.04-0.1,0.11-0.16,0.09-0.29
					c-0.01-0.06-0.05-0.12-0.06-0.19c-0.02-0.11,0-0.22,0-0.34c0-0.2,0.02-0.38-0.08-0.55c-0.38-0.69-1.24-0.93-1.97-0.79
					c-0.18,0.03-0.29,0.13-0.44,0.21c-0.17,0.09-0.14,0.17-0.32,0.22c-0.08,0.03-0.22,0.12-0.21,0.22c0,0.12,0,0.05,0.01,0.17
					c-0.02,0.01-0.02,0-0.03-0.03"/>
				<path class="st2" d="M15.82-48.7c0.02,0.07,0.01,0.13-0.03,0.19c-0.05,0.1-0.11,0.06-0.16,0.13c-0.05,0.06-0.1,0.28-0.08,0.36
					c-0.17,0.06-0.01,0.23-0.02,0.35c0,0.05-0.04,0.11-0.05,0.16c-0.01,0.12,0.02,0.27,0.07,0.37c0.1,0.2,0.27,0.41,0.44,0.54
					c0.19,0.15,0.36,0.57,0.61,0.63c0.18,0.04,0.38-0.1,0.54-0.14c0.18-0.04,0.4,0.01,0.57-0.05c0.22-0.08,0.13-0.34,0.29-0.45
					c0.1-0.07,0.29-0.01,0.41-0.05c0.2-0.07,0.34-0.26,0.38-0.46c0.02-0.08,0.01-0.14,0.04-0.22c0.04-0.1,0.11-0.16,0.09-0.29
					c-0.01-0.06-0.05-0.12-0.06-0.19c-0.02-0.11,0-0.22,0-0.34c0-0.2,0.02-0.38-0.08-0.55c-0.38-0.69-1.24-0.93-1.97-0.79
					c-0.18,0.03-0.29,0.13-0.44,0.21c-0.17,0.09-0.14,0.17-0.32,0.22c-0.08,0.03-0.22,0.12-0.21,0.22c0,0.12,0,0.05,0.01,0.17
					c-0.02,0.01-0.02,0-0.03-0.03"/>
				<path class="st2" d="M8.16-48.7c0.02,0.07,0.01,0.13-0.03,0.19c-0.05,0.1-0.11,0.06-0.17,0.13c-0.05,0.06-0.1,0.28-0.08,0.36
					c-0.17,0.06-0.01,0.23-0.02,0.35c0,0.05-0.04,0.11-0.04,0.16c-0.01,0.12,0.02,0.27,0.07,0.37c0.1,0.2,0.27,0.41,0.44,0.54
					c0.19,0.15,0.36,0.57,0.61,0.63c0.18,0.04,0.38-0.1,0.54-0.14c0.18-0.04,0.4,0.01,0.57-0.05c0.22-0.08,0.13-0.34,0.29-0.45
					c0.1-0.07,0.29-0.01,0.41-0.05c0.2-0.07,0.34-0.26,0.38-0.46c0.02-0.08,0.01-0.14,0.04-0.22c0.04-0.1,0.11-0.16,0.09-0.29
					c-0.01-0.06-0.05-0.12-0.06-0.19c-0.02-0.11,0-0.22,0-0.34c0-0.2,0.02-0.38-0.08-0.55c-0.38-0.69-1.24-0.93-1.97-0.79
					c-0.18,0.03-0.29,0.13-0.44,0.21c-0.17,0.09-0.14,0.17-0.32,0.22c-0.08,0.03-0.22,0.12-0.21,0.22c0,0.12,0,0.05,0.01,0.17
					c-0.02,0.01-0.02,0-0.03-0.03"/>
				<path class="st2" d="M0.5-48.7c0.02,0.07,0.01,0.13-0.03,0.19c-0.05,0.1-0.11,0.06-0.17,0.13c-0.05,0.06-0.1,0.28-0.08,0.36
					c-0.17,0.06-0.01,0.23-0.02,0.35c0,0.05-0.04,0.11-0.04,0.16c-0.01,0.12,0.02,0.27,0.07,0.37c0.1,0.2,0.27,0.41,0.44,0.54
					c0.19,0.15,0.36,0.57,0.61,0.63c0.18,0.04,0.38-0.1,0.54-0.14c0.18-0.04,0.4,0.01,0.57-0.05c0.22-0.08,0.13-0.34,0.29-0.45
					c0.1-0.07,0.29-0.01,0.41-0.05c0.2-0.07,0.34-0.26,0.38-0.46c0.02-0.08,0.01-0.14,0.04-0.22c0.04-0.1,0.11-0.16,0.09-0.29
					c-0.01-0.06-0.05-0.12-0.06-0.19c-0.02-0.11,0-0.22,0-0.34c0-0.2,0.02-0.38-0.08-0.55c-0.38-0.69-1.24-0.93-1.97-0.79
					c-0.18,0.03-0.29,0.13-0.44,0.21c-0.17,0.09-0.14,0.17-0.32,0.22c-0.08,0.03-0.22,0.12-0.21,0.22c0,0.12,0,0.05,0.01,0.17
					c-0.02,0.01-0.02,0-0.03-0.03"/>
			</g>
			<g>
				<path class="st2" d="M69.44-41.04c0.02,0.07,0.01,0.13-0.03,0.19c-0.05,0.1-0.11,0.06-0.17,0.13c-0.05,0.06-0.1,0.28-0.08,0.36
					c-0.17,0.06-0.01,0.23-0.02,0.35c0,0.05-0.04,0.11-0.04,0.16c-0.01,0.12,0.02,0.27,0.07,0.37c0.1,0.2,0.27,0.41,0.43,0.54
					c0.19,0.15,0.36,0.57,0.61,0.63c0.18,0.04,0.38-0.1,0.54-0.14c0.18-0.04,0.4,0.01,0.57-0.05c0.22-0.08,0.13-0.34,0.29-0.45
					c0.1-0.07,0.29-0.01,0.41-0.05c0.2-0.07,0.34-0.26,0.38-0.46c0.02-0.08,0.01-0.14,0.04-0.22c0.04-0.1,0.11-0.16,0.09-0.29
					c-0.01-0.06-0.05-0.12-0.06-0.19c-0.02-0.11,0-0.22,0-0.34c0-0.2,0.02-0.38-0.08-0.55c-0.38-0.69-1.24-0.93-1.97-0.79
					c-0.18,0.03-0.29,0.13-0.44,0.21c-0.17,0.09-0.14,0.17-0.32,0.22c-0.08,0.03-0.22,0.12-0.21,0.22c0,0.12,0,0.05,0.01,0.17
					c-0.02,0.01-0.02,0-0.03-0.03"/>
				<path class="st2" d="M61.78-41.04c0.02,0.07,0.01,0.13-0.03,0.19c-0.05,0.1-0.11,0.06-0.17,0.13c-0.05,0.06-0.1,0.28-0.08,0.36
					c-0.17,0.06-0.01,0.23-0.02,0.35c0,0.05-0.04,0.11-0.04,0.16c-0.01,0.12,0.02,0.27,0.07,0.37c0.1,0.2,0.27,0.41,0.44,0.54
					c0.19,0.15,0.36,0.57,0.61,0.63c0.18,0.04,0.38-0.1,0.54-0.14c0.18-0.04,0.4,0.01,0.57-0.05c0.22-0.08,0.13-0.34,0.29-0.45
					c0.1-0.07,0.29-0.01,0.41-0.05c0.2-0.07,0.34-0.26,0.38-0.46c0.02-0.08,0.01-0.14,0.04-0.22c0.04-0.1,0.11-0.16,0.09-0.29
					c-0.01-0.06-0.05-0.12-0.06-0.19c-0.02-0.11,0-0.22,0-0.34c0-0.2,0.02-0.38-0.08-0.55c-0.38-0.69-1.24-0.93-1.97-0.79
					c-0.18,0.03-0.29,0.13-0.44,0.21c-0.17,0.09-0.14,0.17-0.32,0.22c-0.08,0.03-0.22,0.12-0.21,0.22c0,0.12,0,0.05,0.01,0.17
					c-0.02,0.01-0.02,0-0.03-0.03"/>
				<path class="st2" d="M54.12-41.04c0.02,0.07,0.01,0.13-0.03,0.19c-0.05,0.1-0.11,0.06-0.17,0.13c-0.05,0.06-0.1,0.28-0.08,0.36
					c-0.17,0.06-0.01,0.23-0.02,0.35c0,0.05-0.04,0.11-0.04,0.16c-0.01,0.12,0.02,0.27,0.07,0.37c0.1,0.2,0.27,0.41,0.44,0.54
					c0.19,0.15,0.36,0.57,0.61,0.63c0.18,0.04,0.38-0.1,0.54-0.14c0.18-0.04,0.4,0.01,0.57-0.05c0.22-0.08,0.13-0.34,0.29-0.45
					c0.1-0.07,0.29-0.01,0.41-0.05c0.2-0.07,0.34-0.26,0.38-0.46c0.02-0.08,0.01-0.14,0.04-0.22c0.04-0.1,0.11-0.16,0.09-0.29
					c-0.01-0.06-0.05-0.12-0.06-0.19c-0.02-0.11,0-0.22,0-0.34c0-0.2,0.02-0.38-0.08-0.55c-0.38-0.69-1.24-0.93-1.97-0.79
					c-0.18,0.03-0.29,0.13-0.44,0.21c-0.17,0.09-0.14,0.17-0.32,0.22c-0.08,0.03-0.22,0.12-0.21,0.22c0,0.12,0,0.05,0.01,0.17
					c-0.02,0.01-0.02,0-0.03-0.03"/>
				<path class="st2" d="M46.46-41.04c0.02,0.07,0.01,0.13-0.03,0.19c-0.05,0.1-0.11,0.06-0.16,0.13c-0.05,0.06-0.1,0.28-0.08,0.36
					c-0.17,0.06-0.01,0.23-0.02,0.35c0,0.05-0.04,0.11-0.05,0.16c-0.01,0.12,0.02,0.27,0.07,0.37c0.1,0.2,0.27,0.41,0.44,0.54
					c0.19,0.15,0.36,0.57,0.61,0.63c0.18,0.04,0.38-0.1,0.54-0.14c0.18-0.04,0.4,0.01,0.57-0.05c0.22-0.08,0.13-0.34,0.29-0.45
					c0.1-0.07,0.29-0.01,0.41-0.05c0.2-0.07,0.34-0.26,0.38-0.46c0.02-0.08,0.01-0.14,0.04-0.22c0.04-0.1,0.11-0.16,0.09-0.29
					c-0.01-0.06-0.05-0.12-0.06-0.19c-0.02-0.11,0-0.22,0-0.34c0-0.2,0.02-0.38-0.08-0.55c-0.38-0.69-1.24-0.93-1.97-0.79
					c-0.18,0.03-0.29,0.13-0.44,0.21c-0.17,0.09-0.14,0.17-0.32,0.22c-0.08,0.03-0.22,0.12-0.21,0.22c0,0.12,0,0.05,0.01,0.17
					c-0.02,0.01-0.02,0-0.03-0.03"/>
				<path class="st2" d="M38.8-41.04c0.02,0.07,0.01,0.13-0.03,0.19c-0.05,0.1-0.11,0.06-0.17,0.13c-0.05,0.06-0.1,0.28-0.08,0.36
					c-0.17,0.06-0.01,0.23-0.02,0.35c0,0.05-0.04,0.11-0.04,0.16c-0.01,0.12,0.02,0.27,0.07,0.37c0.1,0.2,0.27,0.41,0.44,0.54
					c0.19,0.15,0.36,0.57,0.61,0.63c0.18,0.04,0.38-0.1,0.54-0.14c0.18-0.04,0.4,0.01,0.57-0.05c0.22-0.08,0.13-0.34,0.29-0.45
					c0.1-0.07,0.29-0.01,0.41-0.05c0.2-0.07,0.34-0.26,0.38-0.46c0.02-0.08,0.01-0.14,0.04-0.22c0.04-0.1,0.11-0.16,0.09-0.29
					c-0.01-0.06-0.05-0.12-0.06-0.19c-0.02-0.11,0-0.22,0-0.34c0-0.2,0.02-0.38-0.08-0.55c-0.38-0.69-1.24-0.93-1.97-0.79
					c-0.18,0.03-0.29,0.13-0.44,0.21c-0.17,0.09-0.14,0.17-0.32,0.22c-0.08,0.03-0.22,0.12-0.21,0.22c0,0.12,0,0.05,0.01,0.17
					c-0.02,0.01-0.02,0-0.03-0.03"/>
				<path class="st2" d="M31.14-41.04c0.02,0.07,0.01,0.13-0.03,0.19c-0.05,0.1-0.11,0.06-0.16,0.13c-0.05,0.06-0.1,0.28-0.08,0.36
					c-0.17,0.06-0.01,0.23-0.02,0.35c0,0.05-0.04,0.11-0.05,0.16c-0.01,0.12,0.02,0.27,0.07,0.37c0.1,0.2,0.27,0.41,0.44,0.54
					c0.19,0.15,0.36,0.57,0.61,0.63c0.18,0.04,0.38-0.1,0.54-0.14c0.18-0.04,0.4,0.01,0.57-0.05c0.22-0.08,0.13-0.34,0.29-0.45
					c0.1-0.07,0.29-0.01,0.41-0.05c0.2-0.07,0.34-0.26,0.38-0.46c0.02-0.08,0.01-0.14,0.04-0.22c0.04-0.1,0.11-0.16,0.09-0.29
					c-0.01-0.06-0.05-0.12-0.06-0.19c-0.02-0.11,0-0.22,0-0.34c0-0.2,0.02-0.38-0.08-0.55c-0.38-0.69-1.24-0.93-1.97-0.79
					c-0.18,0.03-0.29,0.13-0.44,0.21c-0.17,0.09-0.14,0.17-0.32,0.22c-0.08,0.03-0.22,0.12-0.21,0.22c0,0.12,0,0.05,0.01,0.17
					c-0.02,0.01-0.02,0-0.03-0.03"/>
				<path class="st2" d="M23.48-41.04c0.02,0.07,0.01,0.13-0.03,0.19c-0.05,0.1-0.11,0.06-0.17,0.13c-0.05,0.06-0.1,0.28-0.08,0.36
					c-0.17,0.06-0.01,0.23-0.02,0.35c0,0.05-0.04,0.11-0.04,0.16c-0.01,0.12,0.02,0.27,0.07,0.37c0.1,0.2,0.27,0.41,0.44,0.54
					c0.19,0.15,0.36,0.57,0.61,0.63c0.18,0.04,0.38-0.1,0.54-0.14c0.18-0.04,0.4,0.01,0.57-0.05c0.22-0.08,0.13-0.34,0.29-0.45
					c0.1-0.07,0.29-0.01,0.41-0.05c0.2-0.07,0.34-0.26,0.38-0.46c0.02-0.08,0.01-0.14,0.04-0.22c0.04-0.1,0.11-0.16,0.09-0.29
					c-0.01-0.06-0.05-0.12-0.06-0.19c-0.02-0.11,0-0.22,0-0.34c0-0.2,0.02-0.38-0.08-0.55c-0.38-0.69-1.24-0.93-1.97-0.79
					c-0.18,0.03-0.29,0.13-0.44,0.21c-0.17,0.09-0.14,0.17-0.32,0.22c-0.08,0.03-0.22,0.12-0.21,0.22c0,0.12,0,0.05,0.01,0.17
					c-0.02,0.01-0.02,0-0.03-0.03"/>
				<path class="st2" d="M15.82-41.04c0.02,0.07,0.01,0.13-0.03,0.19c-0.05,0.1-0.11,0.06-0.16,0.13c-0.05,0.06-0.1,0.28-0.08,0.36
					c-0.17,0.06-0.01,0.23-0.02,0.35c0,0.05-0.04,0.11-0.05,0.16c-0.01,0.12,0.02,0.27,0.07,0.37c0.1,0.2,0.27,0.41,0.44,0.54
					c0.19,0.15,0.36,0.57,0.61,0.63c0.18,0.04,0.38-0.1,0.54-0.14c0.18-0.04,0.4,0.01,0.57-0.05c0.22-0.08,0.13-0.34,0.29-0.45
					c0.1-0.07,0.29-0.01,0.41-0.05c0.2-0.07,0.34-0.26,0.38-0.46c0.02-0.08,0.01-0.14,0.04-0.22c0.04-0.1,0.11-0.16,0.09-0.29
					c-0.01-0.06-0.05-0.12-0.06-0.19c-0.02-0.11,0-0.22,0-0.34c0-0.2,0.02-0.38-0.08-0.55c-0.38-0.69-1.24-0.93-1.97-0.79
					c-0.18,0.03-0.29,0.13-0.44,0.21c-0.17,0.09-0.14,0.17-0.32,0.22c-0.08,0.03-0.22,0.12-0.21,0.22c0,0.12,0,0.05,0.01,0.17
					c-0.02,0.01-0.02,0-0.03-0.03"/>
				<path class="st2" d="M8.16-41.04c0.02,0.07,0.01,0.13-0.03,0.19c-0.05,0.1-0.11,0.06-0.17,0.13c-0.05,0.06-0.1,0.28-0.08,0.36
					c-0.17,0.06-0.01,0.23-0.02,0.35c0,0.05-0.04,0.11-0.04,0.16c-0.01,0.12,0.02,0.27,0.07,0.37c0.1,0.2,0.27,0.41,0.44,0.54
					c0.19,0.15,0.36,0.57,0.61,0.63c0.18,0.04,0.38-0.1,0.54-0.14c0.18-0.04,0.4,0.01,0.57-0.05c0.22-0.08,0.13-0.34,0.29-0.45
					c0.1-0.07,0.29-0.01,0.41-0.05c0.2-0.07,0.34-0.26,0.38-0.46c0.02-0.08,0.01-0.14,0.04-0.22c0.04-0.1,0.11-0.16,0.09-0.29
					c-0.01-0.06-0.05-0.12-0.06-0.19c-0.02-0.11,0-0.22,0-0.34c0-0.2,0.02-0.38-0.08-0.55c-0.38-0.69-1.24-0.93-1.97-0.79
					c-0.18,0.03-0.29,0.13-0.44,0.21c-0.17,0.09-0.14,0.17-0.32,0.22c-0.08,0.03-0.22,0.12-0.21,0.22c0,0.12,0,0.05,0.01,0.17
					c-0.02,0.01-0.02,0-0.03-0.03"/>
				<path class="st2" d="M0.5-41.04c0.02,0.07,0.01,0.13-0.03,0.19c-0.05,0.1-0.11,0.06-0.17,0.13c-0.05,0.06-0.1,0.28-0.08,0.36
					c-0.17,0.06-0.01,0.23-0.02,0.35c0,0.05-0.04,0.11-0.04,0.16c-0.01,0.12,0.02,0.27,0.07,0.37c0.1,0.2,0.27,0.41,0.44,0.54
					c0.19,0.15,0.36,0.57,0.61,0.63c0.18,0.04,0.38-0.1,0.54-0.14c0.18-0.04,0.4,0.01,0.57-0.05c0.22-0.08,0.13-0.34,0.29-0.45
					c0.1-0.07,0.29-0.01,0.41-0.05c0.2-0.07,0.34-0.26,0.38-0.46c0.02-0.08,0.01-0.14,0.04-0.22c0.04-0.1,0.11-0.16,0.09-0.29
					c-0.01-0.06-0.05-0.12-0.06-0.19c-0.02-0.11,0-0.22,0-0.34c0-0.2,0.02-0.38-0.08-0.55c-0.38-0.69-1.24-0.93-1.97-0.79
					c-0.18,0.03-0.29,0.13-0.44,0.21c-0.17,0.09-0.14,0.17-0.32,0.22c-0.08,0.03-0.22,0.12-0.21,0.22c0,0.12,0,0.05,0.01,0.17
					c-0.02,0.01-0.02,0-0.03-0.03"/>
			</g>
			<g>
				<path class="st2" d="M69.44-33.39c0.02,0.07,0.01,0.13-0.03,0.19c-0.05,0.1-0.11,0.06-0.17,0.13c-0.05,0.06-0.1,0.28-0.08,0.36
					c-0.17,0.06-0.01,0.23-0.02,0.35c0,0.05-0.04,0.11-0.04,0.16c-0.01,0.12,0.02,0.27,0.07,0.37c0.1,0.2,0.27,0.41,0.43,0.54
					c0.19,0.15,0.36,0.57,0.61,0.63c0.18,0.04,0.38-0.1,0.54-0.14c0.18-0.04,0.4,0.01,0.57-0.05c0.22-0.08,0.13-0.34,0.29-0.45
					c0.1-0.07,0.29-0.01,0.41-0.05c0.2-0.07,0.34-0.26,0.38-0.46c0.02-0.08,0.01-0.14,0.04-0.22c0.04-0.1,0.11-0.16,0.09-0.29
					c-0.01-0.06-0.05-0.12-0.06-0.19c-0.02-0.11,0-0.22,0-0.34c0-0.2,0.02-0.38-0.08-0.55c-0.38-0.69-1.24-0.93-1.97-0.79
					c-0.18,0.03-0.29,0.13-0.44,0.21c-0.17,0.09-0.14,0.17-0.32,0.22c-0.08,0.03-0.22,0.12-0.21,0.22c0,0.12,0,0.05,0.01,0.17
					c-0.02,0.01-0.02,0-0.03-0.03"/>
				<path class="st2" d="M61.78-33.39c0.02,0.07,0.01,0.13-0.03,0.19c-0.05,0.1-0.11,0.06-0.17,0.13c-0.05,0.06-0.1,0.28-0.08,0.36
					c-0.17,0.06-0.01,0.23-0.02,0.35c0,0.05-0.04,0.11-0.04,0.16c-0.01,0.12,0.02,0.27,0.07,0.37c0.1,0.2,0.27,0.41,0.44,0.54
					c0.19,0.15,0.36,0.57,0.61,0.63c0.18,0.04,0.38-0.1,0.54-0.14c0.18-0.04,0.4,0.01,0.57-0.05c0.22-0.08,0.13-0.34,0.29-0.45
					c0.1-0.07,0.29-0.01,0.41-0.05c0.2-0.07,0.34-0.26,0.38-0.46c0.02-0.08,0.01-0.14,0.04-0.22c0.04-0.1,0.11-0.16,0.09-0.29
					c-0.01-0.06-0.05-0.12-0.06-0.19c-0.02-0.11,0-0.22,0-0.34c0-0.2,0.02-0.38-0.08-0.55c-0.38-0.69-1.24-0.93-1.97-0.79
					c-0.18,0.03-0.29,0.13-0.44,0.21c-0.17,0.09-0.14,0.17-0.32,0.22c-0.08,0.03-0.22,0.12-0.21,0.22c0,0.12,0,0.05,0.01,0.17
					c-0.02,0.01-0.02,0-0.03-0.03"/>
				<path class="st2" d="M54.12-33.39c0.02,0.07,0.01,0.13-0.03,0.19c-0.05,0.1-0.11,0.06-0.17,0.13c-0.05,0.06-0.1,0.28-0.08,0.36
					c-0.17,0.06-0.01,0.23-0.02,0.35c0,0.05-0.04,0.11-0.04,0.16c-0.01,0.12,0.02,0.27,0.07,0.37c0.1,0.2,0.27,0.41,0.44,0.54
					c0.19,0.15,0.36,0.57,0.61,0.63c0.18,0.04,0.38-0.1,0.54-0.14c0.18-0.04,0.4,0.01,0.57-0.05c0.22-0.08,0.13-0.34,0.29-0.45
					c0.1-0.07,0.29-0.01,0.41-0.05c0.2-0.07,0.34-0.26,0.38-0.46c0.02-0.08,0.01-0.14,0.04-0.22c0.04-0.1,0.11-0.16,0.09-0.29
					c-0.01-0.06-0.05-0.12-0.06-0.19c-0.02-0.11,0-0.22,0-0.34c0-0.2,0.02-0.38-0.08-0.55c-0.38-0.69-1.24-0.93-1.97-0.79
					c-0.18,0.03-0.29,0.13-0.44,0.21c-0.17,0.09-0.14,0.17-0.32,0.22c-0.08,0.03-0.22,0.12-0.21,0.22c0,0.12,0,0.05,0.01,0.17
					c-0.02,0.01-0.02,0-0.03-0.03"/>
				<path class="st2" d="M46.46-33.39c0.02,0.07,0.01,0.13-0.03,0.19c-0.05,0.1-0.11,0.06-0.16,0.13c-0.05,0.06-0.1,0.28-0.08,0.36
					c-0.17,0.06-0.01,0.23-0.02,0.35c0,0.05-0.04,0.11-0.05,0.16c-0.01,0.12,0.02,0.27,0.07,0.37c0.1,0.2,0.27,0.41,0.44,0.54
					c0.19,0.15,0.36,0.57,0.61,0.63c0.18,0.04,0.38-0.1,0.54-0.14c0.18-0.04,0.4,0.01,0.57-0.05c0.22-0.08,0.13-0.34,0.29-0.45
					c0.1-0.07,0.29-0.01,0.41-0.05c0.2-0.07,0.34-0.26,0.38-0.46c0.02-0.08,0.01-0.14,0.04-0.22c0.04-0.1,0.11-0.16,0.09-0.29
					c-0.01-0.06-0.05-0.12-0.06-0.19c-0.02-0.11,0-0.22,0-0.34c0-0.2,0.02-0.38-0.08-0.55c-0.38-0.69-1.24-0.93-1.97-0.79
					c-0.18,0.03-0.29,0.13-0.44,0.21c-0.17,0.09-0.14,0.17-0.32,0.22c-0.08,0.03-0.22,0.12-0.21,0.22c0,0.12,0,0.05,0.01,0.17
					c-0.02,0.01-0.02,0-0.03-0.03"/>
				<path class="st2" d="M38.8-33.39c0.02,0.07,0.01,0.13-0.03,0.19c-0.05,0.1-0.11,0.06-0.17,0.13c-0.05,0.06-0.1,0.28-0.08,0.36
					c-0.17,0.06-0.01,0.23-0.02,0.35c0,0.05-0.04,0.11-0.04,0.16c-0.01,0.12,0.02,0.27,0.07,0.37c0.1,0.2,0.27,0.41,0.44,0.54
					c0.19,0.15,0.36,0.57,0.61,0.63c0.18,0.04,0.38-0.1,0.54-0.14c0.18-0.04,0.4,0.01,0.57-0.05c0.22-0.08,0.13-0.34,0.29-0.45
					c0.1-0.07,0.29-0.01,0.41-0.05c0.2-0.07,0.34-0.26,0.38-0.46c0.02-0.08,0.01-0.14,0.04-0.22c0.04-0.1,0.11-0.16,0.09-0.29
					c-0.01-0.06-0.05-0.12-0.06-0.19c-0.02-0.11,0-0.22,0-0.34c0-0.2,0.02-0.38-0.08-0.55c-0.38-0.69-1.24-0.93-1.97-0.79
					c-0.18,0.03-0.29,0.13-0.44,0.21c-0.17,0.09-0.14,0.17-0.32,0.22c-0.08,0.03-0.22,0.12-0.21,0.22c0,0.12,0,0.05,0.01,0.17
					c-0.02,0.01-0.02,0-0.03-0.03"/>
				<path class="st2" d="M31.14-33.39c0.02,0.07,0.01,0.13-0.03,0.19c-0.05,0.1-0.11,0.06-0.16,0.13c-0.05,0.06-0.1,0.28-0.08,0.36
					c-0.17,0.06-0.01,0.23-0.02,0.35c0,0.05-0.04,0.11-0.05,0.16c-0.01,0.12,0.02,0.27,0.07,0.37c0.1,0.2,0.27,0.41,0.44,0.54
					c0.19,0.15,0.36,0.57,0.61,0.63c0.18,0.04,0.38-0.1,0.54-0.14c0.18-0.04,0.4,0.01,0.57-0.05c0.22-0.08,0.13-0.34,0.29-0.45
					c0.1-0.07,0.29-0.01,0.41-0.05c0.2-0.07,0.34-0.26,0.38-0.46c0.02-0.08,0.01-0.14,0.04-0.22c0.04-0.1,0.11-0.16,0.09-0.29
					c-0.01-0.06-0.05-0.12-0.06-0.19c-0.02-0.11,0-0.22,0-0.34c0-0.2,0.02-0.38-0.08-0.55c-0.38-0.69-1.24-0.93-1.97-0.79
					c-0.18,0.03-0.29,0.13-0.44,0.21c-0.17,0.09-0.14,0.17-0.32,0.22c-0.08,0.03-0.22,0.12-0.21,0.22c0,0.12,0,0.05,0.01,0.17
					c-0.02,0.01-0.02,0-0.03-0.03"/>
				<path class="st2" d="M23.48-33.39c0.02,0.07,0.01,0.13-0.03,0.19c-0.05,0.1-0.11,0.06-0.17,0.13c-0.05,0.06-0.1,0.28-0.08,0.36
					c-0.17,0.06-0.01,0.23-0.02,0.35c0,0.05-0.04,0.11-0.04,0.16c-0.01,0.12,0.02,0.27,0.07,0.37c0.1,0.2,0.27,0.41,0.44,0.54
					c0.19,0.15,0.36,0.57,0.61,0.63c0.18,0.04,0.38-0.1,0.54-0.14c0.18-0.04,0.4,0.01,0.57-0.05c0.22-0.08,0.13-0.34,0.29-0.45
					c0.1-0.07,0.29-0.01,0.41-0.05c0.2-0.07,0.34-0.26,0.38-0.46c0.02-0.08,0.01-0.14,0.04-0.22c0.04-0.1,0.11-0.16,0.09-0.29
					c-0.01-0.06-0.05-0.12-0.06-0.19c-0.02-0.11,0-0.22,0-0.34c0-0.2,0.02-0.38-0.08-0.55c-0.38-0.69-1.24-0.93-1.97-0.79
					c-0.18,0.03-0.29,0.13-0.44,0.21c-0.17,0.09-0.14,0.17-0.32,0.22c-0.08,0.03-0.22,0.12-0.21,0.22c0,0.12,0,0.05,0.01,0.17
					c-0.02,0.01-0.02,0-0.03-0.03"/>
				<path class="st2" d="M15.82-33.39c0.02,0.07,0.01,0.13-0.03,0.19c-0.05,0.1-0.11,0.06-0.16,0.13c-0.05,0.06-0.1,0.28-0.08,0.36
					c-0.17,0.06-0.01,0.23-0.02,0.35c0,0.05-0.04,0.11-0.05,0.16c-0.01,0.12,0.02,0.27,0.07,0.37c0.1,0.2,0.27,0.41,0.44,0.54
					c0.19,0.15,0.36,0.57,0.61,0.63c0.18,0.04,0.38-0.1,0.54-0.14c0.18-0.04,0.4,0.01,0.57-0.05c0.22-0.08,0.13-0.34,0.29-0.45
					c0.1-0.07,0.29-0.01,0.41-0.05c0.2-0.07,0.34-0.26,0.38-0.46c0.02-0.08,0.01-0.14,0.04-0.22c0.04-0.1,0.11-0.16,0.09-0.29
					c-0.01-0.06-0.05-0.12-0.06-0.19c-0.02-0.11,0-0.22,0-0.34c0-0.2,0.02-0.38-0.08-0.55c-0.38-0.69-1.24-0.93-1.97-0.79
					c-0.18,0.03-0.29,0.13-0.44,0.21c-0.17,0.09-0.14,0.17-0.32,0.22c-0.08,0.03-0.22,0.12-0.21,0.22c0,0.12,0,0.05,0.01,0.17
					c-0.02,0.01-0.02,0-0.03-0.03"/>
				<path class="st2" d="M8.16-33.39c0.02,0.07,0.01,0.13-0.03,0.19c-0.05,0.1-0.11,0.06-0.17,0.13c-0.05,0.06-0.1,0.28-0.08,0.36
					c-0.17,0.06-0.01,0.23-0.02,0.35c0,0.05-0.04,0.11-0.04,0.16c-0.01,0.12,0.02,0.27,0.07,0.37c0.1,0.2,0.27,0.41,0.44,0.54
					c0.19,0.15,0.36,0.57,0.61,0.63c0.18,0.04,0.38-0.1,0.54-0.14c0.18-0.04,0.4,0.01,0.57-0.05c0.22-0.08,0.13-0.34,0.29-0.45
					c0.1-0.07,0.29-0.01,0.41-0.05c0.2-0.07,0.34-0.26,0.38-0.46c0.02-0.08,0.01-0.14,0.04-0.22c0.04-0.1,0.11-0.16,0.09-0.29
					c-0.01-0.06-0.05-0.12-0.06-0.19c-0.02-0.11,0-0.22,0-0.34c0-0.2,0.02-0.38-0.08-0.55c-0.38-0.69-1.24-0.93-1.97-0.79
					c-0.18,0.03-0.29,0.13-0.44,0.21c-0.17,0.09-0.14,0.17-0.32,0.22c-0.08,0.03-0.22,0.12-0.21,0.22c0,0.12,0,0.05,0.01,0.17
					c-0.02,0.01-0.02,0-0.03-0.03"/>
				<path class="st2" d="M0.5-33.39c0.02,0.07,0.01,0.13-0.03,0.19c-0.05,0.1-0.11,0.06-0.17,0.13c-0.05,0.06-0.1,0.28-0.08,0.36
					c-0.17,0.06-0.01,0.23-0.02,0.35c0,0.05-0.04,0.11-0.04,0.16c-0.01,0.12,0.02,0.27,0.07,0.37c0.1,0.2,0.27,0.41,0.44,0.54
					c0.19,0.15,0.36,0.57,0.61,0.63c0.18,0.04,0.38-0.1,0.54-0.14c0.18-0.04,0.4,0.01,0.57-0.05c0.22-0.08,0.13-0.34,0.29-0.45
					c0.1-0.07,0.29-0.01,0.41-0.05c0.2-0.07,0.34-0.26,0.38-0.46c0.02-0.08,0.01-0.14,0.04-0.22c0.04-0.1,0.11-0.16,0.09-0.29
					c-0.01-0.06-0.05-0.12-0.06-0.19c-0.02-0.11,0-0.22,0-0.34c0-0.2,0.02-0.38-0.08-0.55c-0.38-0.69-1.24-0.93-1.97-0.79
					c-0.18,0.03-0.29,0.13-0.44,0.21c-0.17,0.09-0.14,0.17-0.32,0.22c-0.08,0.03-0.22,0.12-0.21,0.22c0,0.12,0,0.05,0.01,0.17
					c-0.02,0.01-0.02,0-0.03-0.03"/>
			</g>
			<g>
				<path class="st2" d="M69.44-25.74c0.02,0.07,0.01,0.13-0.03,0.19c-0.05,0.1-0.11,0.06-0.17,0.13c-0.05,0.06-0.1,0.28-0.08,0.36
					C69-25,69.16-24.83,69.15-24.71c0,0.05-0.04,0.11-0.04,0.16c-0.01,0.12,0.02,0.27,0.07,0.37c0.1,0.2,0.27,0.41,0.43,0.54
					c0.19,0.15,0.36,0.57,0.61,0.63c0.18,0.04,0.38-0.1,0.54-0.14c0.18-0.04,0.4,0.01,0.57-0.05c0.22-0.08,0.13-0.34,0.29-0.45
					c0.1-0.07,0.29-0.01,0.41-0.05c0.2-0.07,0.34-0.26,0.38-0.46c0.02-0.08,0.01-0.14,0.04-0.22c0.04-0.1,0.11-0.16,0.09-0.29
					c-0.01-0.06-0.05-0.12-0.06-0.19c-0.02-0.11,0-0.22,0-0.34c0-0.2,0.02-0.38-0.08-0.55c-0.38-0.69-1.24-0.93-1.97-0.79
					c-0.18,0.03-0.29,0.13-0.44,0.21c-0.17,0.09-0.14,0.17-0.32,0.22c-0.08,0.03-0.22,0.12-0.21,0.22c0,0.12,0,0.05,0.01,0.17
					c-0.02,0.01-0.02,0-0.03-0.03"/>
				<path class="st2" d="M61.78-25.74c0.02,0.07,0.01,0.13-0.03,0.19c-0.05,0.1-0.11,0.06-0.17,0.13c-0.05,0.06-0.1,0.28-0.08,0.36
					c-0.17,0.06-0.01,0.23-0.02,0.35c0,0.05-0.04,0.11-0.04,0.16c-0.01,0.12,0.02,0.27,0.07,0.37c0.1,0.2,0.27,0.41,0.44,0.54
					c0.19,0.15,0.36,0.57,0.61,0.63c0.18,0.04,0.38-0.1,0.54-0.14c0.18-0.04,0.4,0.01,0.57-0.05c0.22-0.08,0.13-0.34,0.29-0.45
					c0.1-0.07,0.29-0.01,0.41-0.05c0.2-0.07,0.34-0.26,0.38-0.46c0.02-0.08,0.01-0.14,0.04-0.22c0.04-0.1,0.11-0.16,0.09-0.29
					c-0.01-0.06-0.05-0.12-0.06-0.19c-0.02-0.11,0-0.22,0-0.34c0-0.2,0.02-0.38-0.08-0.55c-0.38-0.69-1.24-0.93-1.97-0.79
					c-0.18,0.03-0.29,0.13-0.44,0.21c-0.17,0.09-0.14,0.17-0.32,0.22c-0.08,0.03-0.22,0.12-0.21,0.22c0,0.12,0,0.05,0.01,0.17
					c-0.02,0.01-0.02,0-0.03-0.03"/>
				<path class="st2" d="M54.12-25.74c0.02,0.07,0.01,0.13-0.03,0.19c-0.05,0.1-0.11,0.06-0.17,0.13c-0.05,0.06-0.1,0.28-0.08,0.36
					c-0.17,0.06-0.01,0.23-0.02,0.35c0,0.05-0.04,0.11-0.04,0.16c-0.01,0.12,0.02,0.27,0.07,0.37c0.1,0.2,0.27,0.41,0.44,0.54
					c0.19,0.15,0.36,0.57,0.61,0.63c0.18,0.04,0.38-0.1,0.54-0.14c0.18-0.04,0.4,0.01,0.57-0.05c0.22-0.08,0.13-0.34,0.29-0.45
					c0.1-0.07,0.29-0.01,0.41-0.05c0.2-0.07,0.34-0.26,0.38-0.46c0.02-0.08,0.01-0.14,0.04-0.22c0.04-0.1,0.11-0.16,0.09-0.29
					c-0.01-0.06-0.05-0.12-0.06-0.19c-0.02-0.11,0-0.22,0-0.34c0-0.2,0.02-0.38-0.08-0.55c-0.38-0.69-1.24-0.93-1.97-0.79
					c-0.18,0.03-0.29,0.13-0.44,0.21c-0.17,0.09-0.14,0.17-0.32,0.22c-0.08,0.03-0.22,0.12-0.21,0.22c0,0.12,0,0.05,0.01,0.17
					c-0.02,0.01-0.02,0-0.03-0.03"/>
				<path class="st2" d="M46.46-25.74c0.02,0.07,0.01,0.13-0.03,0.19c-0.05,0.1-0.11,0.06-0.16,0.13c-0.05,0.06-0.1,0.28-0.08,0.36
					c-0.17,0.06-0.01,0.23-0.02,0.35c0,0.05-0.04,0.11-0.05,0.16c-0.01,0.12,0.02,0.27,0.07,0.37c0.1,0.2,0.27,0.41,0.44,0.54
					c0.19,0.15,0.36,0.57,0.61,0.63c0.18,0.04,0.38-0.1,0.54-0.14c0.18-0.04,0.4,0.01,0.57-0.05c0.22-0.08,0.13-0.34,0.29-0.45
					c0.1-0.07,0.29-0.01,0.41-0.05c0.2-0.07,0.34-0.26,0.38-0.46c0.02-0.08,0.01-0.14,0.04-0.22c0.04-0.1,0.11-0.16,0.09-0.29
					c-0.01-0.06-0.05-0.12-0.06-0.19c-0.02-0.11,0-0.22,0-0.34c0-0.2,0.02-0.38-0.08-0.55c-0.38-0.69-1.24-0.93-1.97-0.79
					c-0.18,0.03-0.29,0.13-0.44,0.21c-0.17,0.09-0.14,0.17-0.32,0.22c-0.08,0.03-0.22,0.12-0.21,0.22c0,0.12,0,0.05,0.01,0.17
					c-0.02,0.01-0.02,0-0.03-0.03"/>
				<path class="st2" d="M38.8-25.74c0.02,0.07,0.01,0.13-0.03,0.19c-0.05,0.1-0.11,0.06-0.17,0.13c-0.05,0.06-0.1,0.28-0.08,0.36
					c-0.17,0.06-0.01,0.23-0.02,0.35c0,0.05-0.04,0.11-0.04,0.16c-0.01,0.12,0.02,0.27,0.07,0.37c0.1,0.2,0.27,0.41,0.44,0.54
					c0.19,0.15,0.36,0.57,0.61,0.63c0.18,0.04,0.38-0.1,0.54-0.14c0.18-0.04,0.4,0.01,0.57-0.05c0.22-0.08,0.13-0.34,0.29-0.45
					c0.1-0.07,0.29-0.01,0.41-0.05c0.2-0.07,0.34-0.26,0.38-0.46c0.02-0.08,0.01-0.14,0.04-0.22c0.04-0.1,0.11-0.16,0.09-0.29
					c-0.01-0.06-0.05-0.12-0.06-0.19c-0.02-0.11,0-0.22,0-0.34c0-0.2,0.02-0.38-0.08-0.55c-0.38-0.69-1.24-0.93-1.97-0.79
					c-0.18,0.03-0.29,0.13-0.44,0.21c-0.17,0.09-0.14,0.17-0.32,0.22c-0.08,0.03-0.22,0.12-0.21,0.22c0,0.12,0,0.05,0.01,0.17
					c-0.02,0.01-0.02,0-0.03-0.03"/>
				<path class="st2" d="M31.14-25.74c0.02,0.07,0.01,0.13-0.03,0.19c-0.05,0.1-0.11,0.06-0.16,0.13c-0.05,0.06-0.1,0.28-0.08,0.36
					c-0.17,0.06-0.01,0.23-0.02,0.35c0,0.05-0.04,0.11-0.05,0.16c-0.01,0.12,0.02,0.27,0.07,0.37c0.1,0.2,0.27,0.41,0.44,0.54
					c0.19,0.15,0.36,0.57,0.61,0.63c0.18,0.04,0.38-0.1,0.54-0.14c0.18-0.04,0.4,0.01,0.57-0.05c0.22-0.08,0.13-0.34,0.29-0.45
					c0.1-0.07,0.29-0.01,0.41-0.05c0.2-0.07,0.34-0.26,0.38-0.46c0.02-0.08,0.01-0.14,0.04-0.22c0.04-0.1,0.11-0.16,0.09-0.29
					c-0.01-0.06-0.05-0.12-0.06-0.19c-0.02-0.11,0-0.22,0-0.34c0-0.2,0.02-0.38-0.08-0.55c-0.38-0.69-1.24-0.93-1.97-0.79
					c-0.18,0.03-0.29,0.13-0.44,0.21c-0.17,0.09-0.14,0.17-0.32,0.22c-0.08,0.03-0.22,0.12-0.21,0.22c0,0.12,0,0.05,0.01,0.17
					c-0.02,0.01-0.02,0-0.03-0.03"/>
				<path class="st2" d="M23.48-25.74c0.02,0.07,0.01,0.13-0.03,0.19c-0.05,0.1-0.11,0.06-0.17,0.13c-0.05,0.06-0.1,0.28-0.08,0.36
					c-0.17,0.06-0.01,0.23-0.02,0.35c0,0.05-0.04,0.11-0.04,0.16c-0.01,0.12,0.02,0.27,0.07,0.37c0.1,0.2,0.27,0.41,0.44,0.54
					c0.19,0.15,0.36,0.57,0.61,0.63c0.18,0.04,0.38-0.1,0.54-0.14c0.18-0.04,0.4,0.01,0.57-0.05c0.22-0.08,0.13-0.34,0.29-0.45
					c0.1-0.07,0.29-0.01,0.41-0.05c0.2-0.07,0.34-0.26,0.38-0.46c0.02-0.08,0.01-0.14,0.04-0.22c0.04-0.1,0.11-0.16,0.09-0.29
					c-0.01-0.06-0.05-0.12-0.06-0.19c-0.02-0.11,0-0.22,0-0.34c0-0.2,0.02-0.38-0.08-0.55c-0.38-0.69-1.24-0.93-1.97-0.79
					c-0.18,0.03-0.29,0.13-0.44,0.21c-0.17,0.09-0.14,0.17-0.32,0.22c-0.08,0.03-0.22,0.12-0.21,0.22c0,0.12,0,0.05,0.01,0.17
					c-0.02,0.01-0.02,0-0.03-0.03"/>
				<path class="st2" d="M15.82-25.74c0.02,0.07,0.01,0.13-0.03,0.19c-0.05,0.1-0.11,0.06-0.16,0.13c-0.05,0.06-0.1,0.28-0.08,0.36
					c-0.17,0.06-0.01,0.23-0.02,0.35c0,0.05-0.04,0.11-0.05,0.16c-0.01,0.12,0.02,0.27,0.07,0.37c0.1,0.2,0.27,0.41,0.44,0.54
					c0.19,0.15,0.36,0.57,0.61,0.63c0.18,0.04,0.38-0.1,0.54-0.14c0.18-0.04,0.4,0.01,0.57-0.05c0.22-0.08,0.13-0.34,0.29-0.45
					c0.1-0.07,0.29-0.01,0.41-0.05c0.2-0.07,0.34-0.26,0.38-0.46c0.02-0.08,0.01-0.14,0.04-0.22c0.04-0.1,0.11-0.16,0.09-0.29
					c-0.01-0.06-0.05-0.12-0.06-0.19c-0.02-0.11,0-0.22,0-0.34c0-0.2,0.02-0.38-0.08-0.55c-0.38-0.69-1.24-0.93-1.97-0.79
					c-0.18,0.03-0.29,0.13-0.44,0.21c-0.17,0.09-0.14,0.17-0.32,0.22c-0.08,0.03-0.22,0.12-0.21,0.22c0,0.12,0,0.05,0.01,0.17
					c-0.02,0.01-0.02,0-0.03-0.03"/>
				<path class="st2" d="M8.16-25.74c0.02,0.07,0.01,0.13-0.03,0.19c-0.05,0.1-0.11,0.06-0.17,0.13c-0.05,0.06-0.1,0.28-0.08,0.36
					C7.72-25,7.88-24.83,7.87-24.71c0,0.05-0.04,0.11-0.04,0.16c-0.01,0.12,0.02,0.27,0.07,0.37c0.1,0.2,0.27,0.41,0.44,0.54
					c0.19,0.15,0.36,0.57,0.61,0.63c0.18,0.04,0.38-0.1,0.54-0.14c0.18-0.04,0.4,0.01,0.57-0.05c0.22-0.08,0.13-0.34,0.29-0.45
					c0.1-0.07,0.29-0.01,0.41-0.05c0.2-0.07,0.34-0.26,0.38-0.46c0.02-0.08,0.01-0.14,0.04-0.22c0.04-0.1,0.11-0.16,0.09-0.29
					c-0.01-0.06-0.05-0.12-0.06-0.19c-0.02-0.11,0-0.22,0-0.34c0-0.2,0.02-0.38-0.08-0.55c-0.38-0.69-1.24-0.93-1.97-0.79
					c-0.18,0.03-0.29,0.13-0.44,0.21c-0.17,0.09-0.14,0.17-0.32,0.22c-0.08,0.03-0.22,0.12-0.21,0.22c0,0.12,0,0.05,0.01,0.17
					c-0.02,0.01-0.02,0-0.03-0.03"/>
				<path class="st2" d="M0.5-25.74c0.02,0.07,0.01,0.13-0.03,0.19c-0.05,0.1-0.11,0.06-0.17,0.13c-0.05,0.06-0.1,0.28-0.08,0.36
					C0.06-25,0.22-24.83,0.21-24.71c0,0.05-0.04,0.11-0.04,0.16c-0.01,0.12,0.02,0.27,0.07,0.37c0.1,0.2,0.27,0.41,0.44,0.54
					c0.19,0.15,0.36,0.57,0.61,0.63c0.18,0.04,0.38-0.1,0.54-0.14c0.18-0.04,0.4,0.01,0.57-0.05c0.22-0.08,0.13-0.34,0.29-0.45
					c0.1-0.07,0.29-0.01,0.41-0.05c0.2-0.07,0.34-0.26,0.38-0.46c0.02-0.08,0.01-0.14,0.04-0.22c0.04-0.1,0.11-0.16,0.09-0.29
					c-0.01-0.06-0.05-0.12-0.06-0.19c-0.02-0.11,0-0.22,0-0.34c0-0.2,0.02-0.38-0.08-0.55c-0.38-0.69-1.24-0.93-1.97-0.79
					c-0.18,0.03-0.29,0.13-0.44,0.21c-0.17,0.09-0.14,0.17-0.32,0.22c-0.08,0.03-0.22,0.12-0.21,0.22c0,0.12,0,0.05,0.01,0.17
					c-0.02,0.01-0.02,0-0.03-0.03"/>
			</g>
			<g>
				<path class="st2" d="M69.44-18.08c0.02,0.07,0.01,0.13-0.03,0.19c-0.05,0.1-0.11,0.06-0.17,0.13c-0.05,0.06-0.1,0.28-0.08,0.36
					c-0.17,0.06-0.01,0.23-0.02,0.35c0,0.05-0.04,0.11-0.04,0.16c-0.01,0.12,0.02,0.27,0.07,0.37c0.1,0.2,0.27,0.41,0.43,0.54
					c0.19,0.15,0.36,0.57,0.61,0.63c0.18,0.04,0.38-0.1,0.54-0.14c0.18-0.04,0.4,0.01,0.57-0.05c0.22-0.08,0.13-0.34,0.29-0.45
					c0.1-0.07,0.29-0.01,0.41-0.05c0.2-0.07,0.34-0.26,0.38-0.46c0.02-0.08,0.01-0.14,0.04-0.22c0.04-0.1,0.11-0.16,0.09-0.29
					c-0.01-0.06-0.05-0.12-0.06-0.19c-0.02-0.11,0-0.22,0-0.34c0-0.2,0.02-0.38-0.08-0.55c-0.38-0.69-1.24-0.93-1.97-0.79
					c-0.18,0.03-0.29,0.13-0.44,0.21c-0.17,0.09-0.14,0.17-0.32,0.22c-0.08,0.03-0.22,0.12-0.21,0.22c0,0.12,0,0.05,0.01,0.17
					c-0.02,0.01-0.02,0-0.03-0.03"/>
				<path class="st2" d="M61.78-18.08c0.02,0.07,0.01,0.13-0.03,0.19c-0.05,0.1-0.11,0.06-0.17,0.13c-0.05,0.06-0.1,0.28-0.08,0.36
					c-0.17,0.06-0.01,0.23-0.02,0.35c0,0.05-0.04,0.11-0.04,0.16c-0.01,0.12,0.02,0.27,0.07,0.37c0.1,0.2,0.27,0.41,0.44,0.54
					c0.19,0.15,0.36,0.57,0.61,0.63c0.18,0.04,0.38-0.1,0.54-0.14c0.18-0.04,0.4,0.01,0.57-0.05c0.22-0.08,0.13-0.34,0.29-0.45
					c0.1-0.07,0.29-0.01,0.41-0.05c0.2-0.07,0.34-0.26,0.38-0.46c0.02-0.08,0.01-0.14,0.04-0.22c0.04-0.1,0.11-0.16,0.09-0.29
					c-0.01-0.06-0.05-0.12-0.06-0.19c-0.02-0.11,0-0.22,0-0.34c0-0.2,0.02-0.38-0.08-0.55c-0.38-0.69-1.24-0.93-1.97-0.79
					c-0.18,0.03-0.29,0.13-0.44,0.21c-0.17,0.09-0.14,0.17-0.32,0.22c-0.08,0.03-0.22,0.12-0.21,0.22c0,0.12,0,0.05,0.01,0.17
					c-0.02,0.01-0.02,0-0.03-0.03"/>
				<path class="st2" d="M54.12-18.08c0.02,0.07,0.01,0.13-0.03,0.19c-0.05,0.1-0.11,0.06-0.17,0.13c-0.05,0.06-0.1,0.28-0.08,0.36
					c-0.17,0.06-0.01,0.23-0.02,0.35c0,0.05-0.04,0.11-0.04,0.16c-0.01,0.12,0.02,0.27,0.07,0.37c0.1,0.2,0.27,0.41,0.44,0.54
					c0.19,0.15,0.36,0.57,0.61,0.63c0.18,0.04,0.38-0.1,0.54-0.14c0.18-0.04,0.4,0.01,0.57-0.05c0.22-0.08,0.13-0.34,0.29-0.45
					c0.1-0.07,0.29-0.01,0.41-0.05c0.2-0.07,0.34-0.26,0.38-0.46c0.02-0.08,0.01-0.14,0.04-0.22c0.04-0.1,0.11-0.16,0.09-0.29
					c-0.01-0.06-0.05-0.12-0.06-0.19c-0.02-0.11,0-0.22,0-0.34c0-0.2,0.02-0.38-0.08-0.55c-0.38-0.69-1.24-0.93-1.97-0.79
					c-0.18,0.03-0.29,0.13-0.44,0.21c-0.17,0.09-0.14,0.17-0.32,0.22c-0.08,0.03-0.22,0.12-0.21,0.22c0,0.12,0,0.05,0.01,0.17
					c-0.02,0.01-0.02,0-0.03-0.03"/>
				<path class="st2" d="M46.46-18.08c0.02,0.07,0.01,0.13-0.03,0.19c-0.05,0.1-0.11,0.06-0.16,0.13c-0.05,0.06-0.1,0.28-0.08,0.36
					c-0.17,0.06-0.01,0.23-0.02,0.35c0,0.05-0.04,0.11-0.05,0.16c-0.01,0.12,0.02,0.27,0.07,0.37c0.1,0.2,0.27,0.41,0.44,0.54
					c0.19,0.15,0.36,0.57,0.61,0.63c0.18,0.04,0.38-0.1,0.54-0.14c0.18-0.04,0.4,0.01,0.57-0.05c0.22-0.08,0.13-0.34,0.29-0.45
					c0.1-0.07,0.29-0.01,0.41-0.05c0.2-0.07,0.34-0.26,0.38-0.46c0.02-0.08,0.01-0.14,0.04-0.22c0.04-0.1,0.11-0.16,0.09-0.29
					c-0.01-0.06-0.05-0.12-0.06-0.19c-0.02-0.11,0-0.22,0-0.34c0-0.2,0.02-0.38-0.08-0.55c-0.38-0.69-1.24-0.93-1.97-0.79
					c-0.18,0.03-0.29,0.13-0.44,0.21c-0.17,0.09-0.14,0.17-0.32,0.22c-0.08,0.03-0.22,0.12-0.21,0.22c0,0.12,0,0.05,0.01,0.17
					c-0.02,0.01-0.02,0-0.03-0.03"/>
				<path class="st2" d="M38.8-18.08c0.02,0.07,0.01,0.13-0.03,0.19c-0.05,0.1-0.11,0.06-0.17,0.13c-0.05,0.06-0.1,0.28-0.08,0.36
					c-0.17,0.06-0.01,0.23-0.02,0.35c0,0.05-0.04,0.11-0.04,0.16c-0.01,0.12,0.02,0.27,0.07,0.37c0.1,0.2,0.27,0.41,0.44,0.54
					c0.19,0.15,0.36,0.57,0.61,0.63c0.18,0.04,0.38-0.1,0.54-0.14c0.18-0.04,0.4,0.01,0.57-0.05c0.22-0.08,0.13-0.34,0.29-0.45
					c0.1-0.07,0.29-0.01,0.41-0.05c0.2-0.07,0.34-0.26,0.38-0.46c0.02-0.08,0.01-0.14,0.04-0.22c0.04-0.1,0.11-0.16,0.09-0.29
					c-0.01-0.06-0.05-0.12-0.06-0.19c-0.02-0.11,0-0.22,0-0.34c0-0.2,0.02-0.38-0.08-0.55c-0.38-0.69-1.24-0.93-1.97-0.79
					c-0.18,0.03-0.29,0.13-0.44,0.21c-0.17,0.09-0.14,0.17-0.32,0.22c-0.08,0.03-0.22,0.12-0.21,0.22c0,0.12,0,0.05,0.01,0.17
					c-0.02,0.01-0.02,0-0.03-0.03"/>
				<path class="st2" d="M31.14-18.08c0.02,0.07,0.01,0.13-0.03,0.19c-0.05,0.1-0.11,0.06-0.16,0.13c-0.05,0.06-0.1,0.28-0.08,0.36
					c-0.17,0.06-0.01,0.23-0.02,0.35c0,0.05-0.04,0.11-0.05,0.16c-0.01,0.12,0.02,0.27,0.07,0.37c0.1,0.2,0.27,0.41,0.44,0.54
					c0.19,0.15,0.36,0.57,0.61,0.63c0.18,0.04,0.38-0.1,0.54-0.14c0.18-0.04,0.4,0.01,0.57-0.05c0.22-0.08,0.13-0.34,0.29-0.45
					c0.1-0.07,0.29-0.01,0.41-0.05c0.2-0.07,0.34-0.26,0.38-0.46c0.02-0.08,0.01-0.14,0.04-0.22c0.04-0.1,0.11-0.16,0.09-0.29
					c-0.01-0.06-0.05-0.12-0.06-0.19c-0.02-0.11,0-0.22,0-0.34c0-0.2,0.02-0.38-0.08-0.55c-0.38-0.69-1.24-0.93-1.97-0.79
					c-0.18,0.03-0.29,0.13-0.44,0.21c-0.17,0.09-0.14,0.17-0.32,0.22c-0.08,0.03-0.22,0.12-0.21,0.22c0,0.12,0,0.05,0.01,0.17
					c-0.02,0.01-0.02,0-0.03-0.03"/>
				<path class="st2" d="M23.48-18.08c0.02,0.07,0.01,0.13-0.03,0.19c-0.05,0.1-0.11,0.06-0.17,0.13c-0.05,0.06-0.1,0.28-0.08,0.36
					c-0.17,0.06-0.01,0.23-0.02,0.35c0,0.05-0.04,0.11-0.04,0.16c-0.01,0.12,0.02,0.27,0.07,0.37c0.1,0.2,0.27,0.41,0.44,0.54
					c0.19,0.15,0.36,0.57,0.61,0.63c0.18,0.04,0.38-0.1,0.54-0.14c0.18-0.04,0.4,0.01,0.57-0.05c0.22-0.08,0.13-0.34,0.29-0.45
					c0.1-0.07,0.29-0.01,0.41-0.05c0.2-0.07,0.34-0.26,0.38-0.46c0.02-0.08,0.01-0.14,0.04-0.22c0.04-0.1,0.11-0.16,0.09-0.29
					c-0.01-0.06-0.05-0.12-0.06-0.19c-0.02-0.11,0-0.22,0-0.34c0-0.2,0.02-0.38-0.08-0.55c-0.38-0.69-1.24-0.93-1.97-0.79
					c-0.18,0.03-0.29,0.13-0.44,0.21c-0.17,0.09-0.14,0.17-0.32,0.22c-0.08,0.03-0.22,0.12-0.21,0.22c0,0.12,0,0.05,0.01,0.17
					c-0.02,0.01-0.02,0-0.03-0.03"/>
				<path class="st2" d="M15.82-18.08c0.02,0.07,0.01,0.13-0.03,0.19c-0.05,0.1-0.11,0.06-0.16,0.13c-0.05,0.06-0.1,0.28-0.08,0.36
					c-0.17,0.06-0.01,0.23-0.02,0.35c0,0.05-0.04,0.11-0.05,0.16c-0.01,0.12,0.02,0.27,0.07,0.37c0.1,0.2,0.27,0.41,0.44,0.54
					c0.19,0.15,0.36,0.57,0.61,0.63c0.18,0.04,0.38-0.1,0.54-0.14c0.18-0.04,0.4,0.01,0.57-0.05c0.22-0.08,0.13-0.34,0.29-0.45
					c0.1-0.07,0.29-0.01,0.41-0.05c0.2-0.07,0.34-0.26,0.38-0.46c0.02-0.08,0.01-0.14,0.04-0.22c0.04-0.1,0.11-0.16,0.09-0.29
					c-0.01-0.06-0.05-0.12-0.06-0.19c-0.02-0.11,0-0.22,0-0.34c0-0.2,0.02-0.38-0.08-0.55c-0.38-0.69-1.24-0.93-1.97-0.79
					c-0.18,0.03-0.29,0.13-0.44,0.21c-0.17,0.09-0.14,0.17-0.32,0.22c-0.08,0.03-0.22,0.12-0.21,0.22c0,0.12,0,0.05,0.01,0.17
					c-0.02,0.01-0.02,0-0.03-0.03"/>
				<path class="st2" d="M8.16-18.08c0.02,0.07,0.01,0.13-0.03,0.19c-0.05,0.1-0.11,0.06-0.17,0.13c-0.05,0.06-0.1,0.28-0.08,0.36
					c-0.17,0.06-0.01,0.23-0.02,0.35c0,0.05-0.04,0.11-0.04,0.16c-0.01,0.12,0.02,0.27,0.07,0.37c0.1,0.2,0.27,0.41,0.44,0.54
					c0.19,0.15,0.36,0.57,0.61,0.63c0.18,0.04,0.38-0.1,0.54-0.14c0.18-0.04,0.4,0.01,0.57-0.05c0.22-0.08,0.13-0.34,0.29-0.45
					c0.1-0.07,0.29-0.01,0.41-0.05c0.2-0.07,0.34-0.26,0.38-0.46c0.02-0.08,0.01-0.14,0.04-0.22c0.04-0.1,0.11-0.16,0.09-0.29
					c-0.01-0.06-0.05-0.12-0.06-0.19c-0.02-0.11,0-0.22,0-0.34c0-0.2,0.02-0.38-0.08-0.55c-0.38-0.69-1.24-0.93-1.97-0.79
					c-0.18,0.03-0.29,0.13-0.44,0.21c-0.17,0.09-0.14,0.17-0.32,0.22c-0.08,0.03-0.22,0.12-0.21,0.22c0,0.12,0,0.05,0.01,0.17
					c-0.02,0.01-0.02,0-0.03-0.03"/>
				<path class="st2" d="M0.5-18.08c0.02,0.07,0.01,0.13-0.03,0.19c-0.05,0.1-0.11,0.06-0.17,0.13c-0.05,0.06-0.1,0.28-0.08,0.36
					c-0.17,0.06-0.01,0.23-0.02,0.35c0,0.05-0.04,0.11-0.04,0.16c-0.01,0.12,0.02,0.27,0.07,0.37c0.1,0.2,0.27,0.41,0.44,0.54
					c0.19,0.15,0.36,0.57,0.61,0.63c0.18,0.04,0.38-0.1,0.54-0.14c0.18-0.04,0.4,0.01,0.57-0.05c0.22-0.08,0.13-0.34,0.29-0.45
					c0.1-0.07,0.29-0.01,0.41-0.05c0.2-0.07,0.34-0.26,0.38-0.46c0.02-0.08,0.01-0.14,0.04-0.22c0.04-0.1,0.11-0.16,0.09-0.29
					c-0.01-0.06-0.05-0.12-0.06-0.19c-0.02-0.11,0-0.22,0-0.34c0-0.2,0.02-0.38-0.08-0.55c-0.38-0.69-1.24-0.93-1.97-0.79
					c-0.18,0.03-0.29,0.13-0.44,0.21c-0.17,0.09-0.14,0.17-0.32,0.22c-0.08,0.03-0.22,0.12-0.21,0.22c0,0.12,0,0.05,0.01,0.17
					c-0.02,0.01-0.02,0-0.03-0.03"/>
			</g>
			<g>
				<path class="st2" d="M69.44-10.43c0.02,0.07,0.01,0.13-0.03,0.19c-0.05,0.1-0.11,0.06-0.17,0.13c-0.05,0.06-0.1,0.28-0.08,0.36
					C69-9.69,69.16-9.52,69.15-9.4c0,0.05-0.04,0.11-0.04,0.16c-0.01,0.12,0.02,0.27,0.07,0.37c0.1,0.2,0.27,0.41,0.43,0.54
					c0.19,0.15,0.36,0.57,0.61,0.63c0.18,0.04,0.38-0.1,0.54-0.14c0.18-0.04,0.4,0.01,0.57-0.05c0.22-0.08,0.13-0.34,0.29-0.45
					c0.1-0.07,0.29-0.01,0.41-0.05c0.2-0.07,0.34-0.26,0.38-0.46c0.02-0.08,0.01-0.14,0.04-0.22c0.04-0.1,0.11-0.16,0.09-0.29
					c-0.01-0.06-0.05-0.12-0.06-0.19c-0.02-0.11,0-0.22,0-0.34c0-0.2,0.02-0.38-0.08-0.55c-0.38-0.69-1.24-0.93-1.97-0.79
					c-0.18,0.03-0.29,0.13-0.44,0.21c-0.17,0.09-0.14,0.17-0.32,0.22c-0.08,0.03-0.22,0.12-0.21,0.22c0,0.12,0,0.05,0.01,0.17
					c-0.02,0.01-0.02,0-0.03-0.03"/>
				<path class="st2" d="M61.78-10.43c0.02,0.07,0.01,0.13-0.03,0.19c-0.05,0.1-0.11,0.06-0.17,0.13c-0.05,0.06-0.1,0.28-0.08,0.36
					c-0.17,0.06-0.01,0.23-0.02,0.35c0,0.05-0.04,0.11-0.04,0.16c-0.01,0.12,0.02,0.27,0.07,0.37c0.1,0.2,0.27,0.41,0.44,0.54
					c0.19,0.15,0.36,0.57,0.61,0.63c0.18,0.04,0.38-0.1,0.54-0.14c0.18-0.04,0.4,0.01,0.57-0.05c0.22-0.08,0.13-0.34,0.29-0.45
					c0.1-0.07,0.29-0.01,0.41-0.05c0.2-0.07,0.34-0.26,0.38-0.46c0.02-0.08,0.01-0.14,0.04-0.22c0.04-0.1,0.11-0.16,0.09-0.29
					c-0.01-0.06-0.05-0.12-0.06-0.19c-0.02-0.11,0-0.22,0-0.34c0-0.2,0.02-0.38-0.08-0.55c-0.38-0.69-1.24-0.93-1.97-0.79
					c-0.18,0.03-0.29,0.13-0.44,0.21c-0.17,0.09-0.14,0.17-0.32,0.22c-0.08,0.03-0.22,0.12-0.21,0.22c0,0.12,0,0.05,0.01,0.17
					c-0.02,0.01-0.02,0-0.03-0.03"/>
				<path class="st2" d="M54.12-10.43c0.02,0.07,0.01,0.13-0.03,0.19c-0.05,0.1-0.11,0.06-0.17,0.13c-0.05,0.06-0.1,0.28-0.08,0.36
					c-0.17,0.06-0.01,0.23-0.02,0.35c0,0.05-0.04,0.11-0.04,0.16c-0.01,0.12,0.02,0.27,0.07,0.37c0.1,0.2,0.27,0.41,0.44,0.54
					c0.19,0.15,0.36,0.57,0.61,0.63c0.18,0.04,0.38-0.1,0.54-0.14c0.18-0.04,0.4,0.01,0.57-0.05c0.22-0.08,0.13-0.34,0.29-0.45
					c0.1-0.07,0.29-0.01,0.41-0.05c0.2-0.07,0.34-0.26,0.38-0.46C57.1-8.93,57.09-9,57.12-9.07c0.04-0.1,0.11-0.16,0.09-0.29
					c-0.01-0.06-0.05-0.12-0.06-0.19c-0.02-0.11,0-0.22,0-0.34c0-0.2,0.02-0.38-0.08-0.55c-0.38-0.69-1.24-0.93-1.97-0.79
					c-0.18,0.03-0.29,0.13-0.44,0.21c-0.17,0.09-0.14,0.17-0.32,0.22c-0.08,0.03-0.22,0.12-0.21,0.22c0,0.12,0,0.05,0.01,0.17
					c-0.02,0.01-0.02,0-0.03-0.03"/>
				<path class="st2" d="M46.46-10.43c0.02,0.07,0.01,0.13-0.03,0.19c-0.05,0.1-0.11,0.06-0.16,0.13c-0.05,0.06-0.1,0.28-0.08,0.36
					c-0.17,0.06-0.01,0.23-0.02,0.35c0,0.05-0.04,0.11-0.05,0.16c-0.01,0.12,0.02,0.27,0.07,0.37c0.1,0.2,0.27,0.41,0.44,0.54
					c0.19,0.15,0.36,0.57,0.61,0.63c0.18,0.04,0.38-0.1,0.54-0.14c0.18-0.04,0.4,0.01,0.57-0.05c0.22-0.08,0.13-0.34,0.29-0.45
					c0.1-0.07,0.29-0.01,0.41-0.05c0.2-0.07,0.34-0.26,0.38-0.46c0.02-0.08,0.01-0.14,0.04-0.22c0.04-0.1,0.11-0.16,0.09-0.29
					c-0.01-0.06-0.05-0.12-0.06-0.19c-0.02-0.11,0-0.22,0-0.34c0-0.2,0.02-0.38-0.08-0.55c-0.38-0.69-1.24-0.93-1.97-0.79
					c-0.18,0.03-0.29,0.13-0.44,0.21c-0.17,0.09-0.14,0.17-0.32,0.22c-0.08,0.03-0.22,0.12-0.21,0.22c0,0.12,0,0.05,0.01,0.17
					c-0.02,0.01-0.02,0-0.03-0.03"/>
				<path class="st2" d="M38.8-10.43c0.02,0.07,0.01,0.13-0.03,0.19c-0.05,0.1-0.11,0.06-0.17,0.13c-0.05,0.06-0.1,0.28-0.08,0.36
					c-0.17,0.06-0.01,0.23-0.02,0.35c0,0.05-0.04,0.11-0.04,0.16c-0.01,0.12,0.02,0.27,0.07,0.37c0.1,0.2,0.27,0.41,0.44,0.54
					c0.19,0.15,0.36,0.57,0.61,0.63c0.18,0.04,0.38-0.1,0.54-0.14c0.18-0.04,0.4,0.01,0.57-0.05c0.22-0.08,0.13-0.34,0.29-0.45
					c0.1-0.07,0.29-0.01,0.41-0.05c0.2-0.07,0.34-0.26,0.38-0.46C41.78-8.93,41.77-9,41.8-9.07c0.04-0.1,0.11-0.16,0.09-0.29
					c-0.01-0.06-0.05-0.12-0.06-0.19c-0.02-0.11,0-0.22,0-0.34c0-0.2,0.02-0.38-0.08-0.55c-0.38-0.69-1.24-0.93-1.97-0.79
					c-0.18,0.03-0.29,0.13-0.44,0.21c-0.17,0.09-0.14,0.17-0.32,0.22c-0.08,0.03-0.22,0.12-0.21,0.22c0,0.12,0,0.05,0.01,0.17
					c-0.02,0.01-0.02,0-0.03-0.03"/>
				<path class="st2" d="M31.14-10.43c0.02,0.07,0.01,0.13-0.03,0.19c-0.05,0.1-0.11,0.06-0.16,0.13c-0.05,0.06-0.1,0.28-0.08,0.36
					c-0.17,0.06-0.01,0.23-0.02,0.35c0,0.05-0.04,0.11-0.05,0.16c-0.01,0.12,0.02,0.27,0.07,0.37c0.1,0.2,0.27,0.41,0.44,0.54
					c0.19,0.15,0.36,0.57,0.61,0.63c0.18,0.04,0.38-0.1,0.54-0.14c0.18-0.04,0.4,0.01,0.57-0.05c0.22-0.08,0.13-0.34,0.29-0.45
					c0.1-0.07,0.29-0.01,0.41-0.05c0.2-0.07,0.34-0.26,0.38-0.46c0.02-0.08,0.01-0.14,0.04-0.22c0.04-0.1,0.11-0.16,0.09-0.29
					c-0.01-0.06-0.05-0.12-0.06-0.19c-0.02-0.11,0-0.22,0-0.34c0-0.2,0.02-0.38-0.08-0.55c-0.38-0.69-1.24-0.93-1.97-0.79
					c-0.18,0.03-0.29,0.13-0.44,0.21c-0.17,0.09-0.14,0.17-0.32,0.22c-0.08,0.03-0.22,0.12-0.21,0.22c0,0.12,0,0.05,0.01,0.17
					c-0.02,0.01-0.02,0-0.03-0.03"/>
				<path class="st2" d="M23.48-10.43c0.02,0.07,0.01,0.13-0.03,0.19c-0.05,0.1-0.11,0.06-0.17,0.13c-0.05,0.06-0.1,0.28-0.08,0.36
					c-0.17,0.06-0.01,0.23-0.02,0.35c0,0.05-0.04,0.11-0.04,0.16c-0.01,0.12,0.02,0.27,0.07,0.37c0.1,0.2,0.27,0.41,0.44,0.54
					c0.19,0.15,0.36,0.57,0.61,0.63c0.18,0.04,0.38-0.1,0.54-0.14c0.18-0.04,0.4,0.01,0.57-0.05c0.22-0.08,0.13-0.34,0.29-0.45
					c0.1-0.07,0.29-0.01,0.41-0.05c0.2-0.07,0.34-0.26,0.38-0.46c0.02-0.08,0.01-0.14,0.04-0.22c0.04-0.1,0.11-0.16,0.09-0.29
					c-0.01-0.06-0.05-0.12-0.06-0.19c-0.02-0.11,0-0.22,0-0.34c0-0.2,0.02-0.38-0.08-0.55c-0.38-0.69-1.24-0.93-1.97-0.79
					c-0.18,0.03-0.29,0.13-0.44,0.21c-0.17,0.09-0.14,0.17-0.32,0.22c-0.08,0.03-0.22,0.12-0.21,0.22c0,0.12,0,0.05,0.01,0.17
					c-0.02,0.01-0.02,0-0.03-0.03"/>
				<path class="st2" d="M15.82-10.43c0.02,0.07,0.01,0.13-0.03,0.19c-0.05,0.1-0.11,0.06-0.16,0.13c-0.05,0.06-0.1,0.28-0.08,0.36
					c-0.17,0.06-0.01,0.23-0.02,0.35c0,0.05-0.04,0.11-0.05,0.16c-0.01,0.12,0.02,0.27,0.07,0.37c0.1,0.2,0.27,0.41,0.44,0.54
					c0.19,0.15,0.36,0.57,0.61,0.63c0.18,0.04,0.38-0.1,0.54-0.14c0.18-0.04,0.4,0.01,0.57-0.05c0.22-0.08,0.13-0.34,0.29-0.45
					c0.1-0.07,0.29-0.01,0.41-0.05c0.2-0.07,0.34-0.26,0.38-0.46C18.8-8.93,18.79-9,18.82-9.07c0.04-0.1,0.11-0.16,0.09-0.29
					c-0.01-0.06-0.05-0.12-0.06-0.19c-0.02-0.11,0-0.22,0-0.34c0-0.2,0.02-0.38-0.08-0.55c-0.38-0.69-1.24-0.93-1.97-0.79
					c-0.18,0.03-0.29,0.13-0.44,0.21c-0.17,0.09-0.14,0.17-0.32,0.22c-0.08,0.03-0.22,0.12-0.21,0.22c0,0.12,0,0.05,0.01,0.17
					c-0.02,0.01-0.02,0-0.03-0.03"/>
				<path class="st2" d="M8.16-10.43c0.02,0.07,0.01,0.13-0.03,0.19c-0.05,0.1-0.11,0.06-0.17,0.13c-0.05,0.06-0.1,0.28-0.08,0.36
					C7.72-9.69,7.88-9.52,7.87-9.4c0,0.05-0.04,0.11-0.04,0.16C7.82-9.12,7.84-8.97,7.89-8.87c0.1,0.2,0.27,0.41,0.44,0.54
					c0.19,0.15,0.36,0.57,0.61,0.63c0.18,0.04,0.38-0.1,0.54-0.14c0.18-0.04,0.4,0.01,0.57-0.05c0.22-0.08,0.13-0.34,0.29-0.45
					c0.1-0.07,0.29-0.01,0.41-0.05c0.2-0.07,0.34-0.26,0.38-0.46c0.02-0.08,0.01-0.14,0.04-0.22c0.04-0.1,0.11-0.16,0.09-0.29
					c-0.01-0.06-0.05-0.12-0.06-0.19c-0.02-0.11,0-0.22,0-0.34c0-0.2,0.02-0.38-0.08-0.55c-0.38-0.69-1.24-0.93-1.97-0.79
					c-0.18,0.03-0.29,0.13-0.44,0.21c-0.17,0.09-0.14,0.17-0.32,0.22c-0.08,0.03-0.22,0.12-0.21,0.22c0,0.12,0,0.05,0.01,0.17
					c-0.02,0.01-0.02,0-0.03-0.03"/>
				<path class="st2" d="M0.5-10.43c0.02,0.07,0.01,0.13-0.03,0.19c-0.05,0.1-0.11,0.06-0.17,0.13c-0.05,0.06-0.1,0.28-0.08,0.36
					C0.06-9.69,0.22-9.52,0.21-9.4c0,0.05-0.04,0.11-0.04,0.16C0.16-9.12,0.18-8.97,0.23-8.87c0.1,0.2,0.27,0.41,0.44,0.54
					c0.19,0.15,0.36,0.57,0.61,0.63c0.18,0.04,0.38-0.1,0.54-0.14C2-7.88,2.22-7.83,2.39-7.89c0.22-0.08,0.13-0.34,0.29-0.45
					c0.1-0.07,0.29-0.01,0.41-0.05c0.2-0.07,0.34-0.26,0.38-0.46C3.48-8.93,3.47-9,3.5-9.07c0.04-0.1,0.11-0.16,0.09-0.29
					C3.58-9.43,3.54-9.48,3.53-9.55c-0.02-0.11,0-0.22,0-0.34c0-0.2,0.02-0.38-0.08-0.55c-0.38-0.69-1.24-0.93-1.97-0.79
					c-0.18,0.03-0.29,0.13-0.44,0.21c-0.17,0.09-0.14,0.17-0.32,0.22c-0.08,0.03-0.22,0.12-0.21,0.22c0,0.12,0,0.05,0.01,0.17
					c-0.02,0.01-0.02,0-0.03-0.03"/>
			</g>
		</g>
		<g>
			<path class="st2" d="M69.44-2.78c0.02,0.07,0.01,0.13-0.03,0.19c-0.05,0.1-0.11,0.06-0.17,0.13c-0.05,0.06-0.1,0.28-0.08,0.36
				C69-2.04,69.16-1.87,69.15-1.75c0,0.05-0.04,0.11-0.04,0.16c-0.01,0.12,0.02,0.27,0.07,0.37c0.1,0.2,0.27,0.41,0.43,0.54
				c0.19,0.15,0.36,0.57,0.61,0.63C70.4,0,70.6-0.15,70.76-0.18c0.18-0.04,0.4,0.01,0.57-0.05c0.22-0.08,0.13-0.34,0.29-0.45
				c0.1-0.07,0.29-0.01,0.41-0.05C72.23-0.81,72.37-1,72.4-1.2c0.02-0.08,0.01-0.14,0.04-0.22c0.04-0.1,0.11-0.16,0.09-0.29
				c-0.01-0.06-0.05-0.12-0.06-0.19c-0.02-0.11,0-0.22,0-0.34c0-0.2,0.02-0.38-0.08-0.55c-0.38-0.69-1.24-0.93-1.97-0.79
				c-0.18,0.03-0.29,0.13-0.44,0.21c-0.17,0.09-0.14,0.17-0.32,0.22c-0.08,0.03-0.22,0.12-0.21,0.22c0,0.12,0,0.05,0.01,0.17
				c-0.02,0.01-0.02,0-0.03-0.03"/>
			<path class="st2" d="M61.78-2.78c0.02,0.07,0.01,0.13-0.03,0.19c-0.05,0.1-0.11,0.06-0.17,0.13c-0.05,0.06-0.1,0.28-0.08,0.36
				c-0.17,0.06-0.01,0.23-0.02,0.35c0,0.05-0.04,0.11-0.04,0.16c-0.01,0.12,0.02,0.27,0.07,0.37c0.1,0.2,0.27,0.41,0.44,0.54
				c0.19,0.15,0.36,0.57,0.61,0.63c0.18,0.04,0.38-0.1,0.54-0.14c0.18-0.04,0.4,0.01,0.57-0.05c0.22-0.08,0.13-0.34,0.29-0.45
				c0.1-0.07,0.29-0.01,0.41-0.05c0.2-0.07,0.34-0.26,0.38-0.46c0.02-0.08,0.01-0.14,0.04-0.22c0.04-0.1,0.11-0.16,0.09-0.29
				c-0.01-0.06-0.05-0.12-0.06-0.19c-0.02-0.11,0-0.22,0-0.34c0-0.2,0.02-0.38-0.08-0.55c-0.38-0.69-1.24-0.93-1.97-0.79
				c-0.18,0.03-0.29,0.13-0.44,0.21C62.14-3.28,62.18-3.2,62-3.14c-0.08,0.03-0.22,0.12-0.21,0.22c0,0.12,0,0.05,0.01,0.17
				c-0.02,0.01-0.02,0-0.03-0.03"/>
			<path class="st2" d="M54.12-2.78c0.02,0.07,0.01,0.13-0.03,0.19c-0.05,0.1-0.11,0.06-0.17,0.13c-0.05,0.06-0.1,0.28-0.08,0.36
				c-0.17,0.06-0.01,0.23-0.02,0.35c0,0.05-0.04,0.11-0.04,0.16c-0.01,0.12,0.02,0.27,0.07,0.37c0.1,0.2,0.27,0.41,0.44,0.54
				c0.19,0.15,0.36,0.57,0.61,0.63c0.18,0.04,0.38-0.1,0.54-0.14c0.18-0.04,0.4,0.01,0.57-0.05c0.22-0.08,0.13-0.34,0.29-0.45
				c0.1-0.07,0.29-0.01,0.41-0.05c0.2-0.07,0.34-0.26,0.38-0.46c0.02-0.08,0.01-0.14,0.04-0.22c0.04-0.1,0.11-0.16,0.09-0.29
				c-0.01-0.06-0.05-0.12-0.06-0.19c-0.02-0.11,0-0.22,0-0.34c0-0.2,0.02-0.38-0.08-0.55c-0.38-0.69-1.24-0.93-1.97-0.79
				c-0.18,0.03-0.29,0.13-0.44,0.21c-0.17,0.09-0.14,0.17-0.32,0.22c-0.08,0.03-0.22,0.12-0.21,0.22c0,0.12,0,0.05,0.01,0.17
				c-0.02,0.01-0.02,0-0.03-0.03"/>
			<path class="st2" d="M46.46-2.78c0.02,0.07,0.01,0.13-0.03,0.19c-0.05,0.1-0.11,0.06-0.16,0.13c-0.05,0.06-0.1,0.28-0.08,0.36
				c-0.17,0.06-0.01,0.23-0.02,0.35c0,0.05-0.04,0.11-0.05,0.16c-0.01,0.12,0.02,0.27,0.07,0.37c0.1,0.2,0.27,0.41,0.44,0.54
				C46.82-0.52,47-0.1,47.24-0.04c0.18,0.04,0.38-0.1,0.54-0.14c0.18-0.04,0.4,0.01,0.57-0.05c0.22-0.08,0.13-0.34,0.29-0.45
				c0.1-0.07,0.29-0.01,0.41-0.05c0.2-0.07,0.34-0.26,0.38-0.46c0.02-0.08,0.01-0.14,0.04-0.22c0.04-0.1,0.11-0.16,0.09-0.29
				c-0.01-0.06-0.05-0.12-0.06-0.19c-0.02-0.11,0-0.22,0-0.34c0-0.2,0.02-0.38-0.08-0.55c-0.38-0.69-1.24-0.93-1.97-0.79
				c-0.18,0.03-0.29,0.13-0.44,0.21c-0.17,0.09-0.14,0.17-0.32,0.22c-0.08,0.03-0.22,0.12-0.21,0.22c0,0.12,0,0.05,0.01,0.17
				c-0.02,0.01-0.02,0-0.03-0.03"/>
			<path class="st2" d="M38.8-2.78c0.02,0.07,0.01,0.13-0.03,0.19c-0.05,0.1-0.11,0.06-0.17,0.13c-0.05,0.06-0.1,0.28-0.08,0.36
				c-0.17,0.06-0.01,0.23-0.02,0.35c0,0.05-0.04,0.11-0.04,0.16c-0.01,0.12,0.02,0.27,0.07,0.37c0.1,0.2,0.27,0.41,0.44,0.54
				c0.19,0.15,0.36,0.57,0.61,0.63c0.18,0.04,0.38-0.1,0.54-0.14c0.18-0.04,0.4,0.01,0.57-0.05c0.22-0.08,0.13-0.34,0.29-0.45
				c0.1-0.07,0.29-0.01,0.41-0.05c0.2-0.07,0.34-0.26,0.38-0.46c0.02-0.08,0.01-0.14,0.04-0.22c0.04-0.1,0.11-0.16,0.09-0.29
				c-0.01-0.06-0.05-0.12-0.06-0.19c-0.02-0.11,0-0.22,0-0.34c0-0.2,0.02-0.38-0.08-0.55c-0.38-0.69-1.24-0.93-1.97-0.79
				c-0.18,0.03-0.29,0.13-0.44,0.21c-0.17,0.09-0.14,0.17-0.32,0.22c-0.08,0.03-0.22,0.12-0.21,0.22c0,0.12,0,0.05,0.01,0.17
				c-0.02,0.01-0.02,0-0.03-0.03"/>
			<path class="st2" d="M31.14-2.78c0.02,0.07,0.01,0.13-0.03,0.19c-0.05,0.1-0.11,0.06-0.16,0.13c-0.05,0.06-0.1,0.28-0.08,0.36
				c-0.17,0.06-0.01,0.23-0.02,0.35c0,0.05-0.04,0.11-0.05,0.16c-0.01,0.12,0.02,0.27,0.07,0.37c0.1,0.2,0.27,0.41,0.44,0.54
				c0.19,0.15,0.36,0.57,0.61,0.63C32.1,0,32.3-0.15,32.46-0.18c0.18-0.04,0.4,0.01,0.57-0.05c0.22-0.08,0.13-0.34,0.29-0.45
				c0.1-0.07,0.29-0.01,0.41-0.05C33.93-0.81,34.07-1,34.1-1.2c0.02-0.08,0.01-0.14,0.04-0.22c0.04-0.1,0.11-0.16,0.09-0.29
				c-0.01-0.06-0.05-0.12-0.06-0.19c-0.02-0.11,0-0.22,0-0.34c0-0.2,0.02-0.38-0.08-0.55c-0.38-0.69-1.24-0.93-1.97-0.79
				c-0.18,0.03-0.29,0.13-0.44,0.21c-0.17,0.09-0.14,0.17-0.32,0.22c-0.08,0.03-0.22,0.12-0.21,0.22c0,0.12,0,0.05,0.01,0.17
				c-0.02,0.01-0.02,0-0.03-0.03"/>
			<path class="st2" d="M23.48-2.78c0.02,0.07,0.01,0.13-0.03,0.19c-0.05,0.1-0.11,0.06-0.17,0.13c-0.05,0.06-0.1,0.28-0.08,0.36
				c-0.17,0.06-0.01,0.23-0.02,0.35c0,0.05-0.04,0.11-0.04,0.16c-0.01,0.12,0.02,0.27,0.07,0.37c0.1,0.2,0.27,0.41,0.44,0.54
				c0.19,0.15,0.36,0.57,0.61,0.63c0.18,0.04,0.38-0.1,0.54-0.14c0.18-0.04,0.4,0.01,0.57-0.05c0.22-0.08,0.13-0.34,0.29-0.45
				c0.1-0.07,0.29-0.01,0.41-0.05c0.2-0.07,0.34-0.26,0.38-0.46c0.02-0.08,0.01-0.14,0.04-0.22c0.04-0.1,0.11-0.16,0.09-0.29
				c-0.01-0.06-0.05-0.12-0.06-0.19c-0.02-0.11,0-0.22,0-0.34c0-0.2,0.02-0.38-0.08-0.55c-0.38-0.69-1.24-0.93-1.97-0.79
				c-0.18,0.03-0.29,0.13-0.44,0.21c-0.17,0.09-0.14,0.17-0.32,0.22c-0.08,0.03-0.22,0.12-0.21,0.22c0,0.12,0,0.05,0.01,0.17
				c-0.02,0.01-0.02,0-0.03-0.03"/>
			<path class="st2" d="M15.82-2.78c0.02,0.07,0.01,0.13-0.03,0.19c-0.05,0.1-0.11,0.06-0.16,0.13c-0.05,0.06-0.1,0.28-0.08,0.36
				c-0.17,0.06-0.01,0.23-0.02,0.35c0,0.05-0.04,0.11-0.05,0.16c-0.01,0.12,0.02,0.27,0.07,0.37c0.1,0.2,0.27,0.41,0.44,0.54
				c0.19,0.15,0.36,0.57,0.61,0.63c0.18,0.04,0.38-0.1,0.54-0.14c0.18-0.04,0.4,0.01,0.57-0.05c0.22-0.08,0.13-0.34,0.29-0.45
				c0.1-0.07,0.29-0.01,0.41-0.05c0.2-0.07,0.34-0.26,0.38-0.46c0.02-0.08,0.01-0.14,0.04-0.22c0.04-0.1,0.11-0.16,0.09-0.29
				c-0.01-0.06-0.05-0.12-0.06-0.19c-0.02-0.11,0-0.22,0-0.34c0-0.2,0.02-0.38-0.08-0.55c-0.38-0.69-1.24-0.93-1.97-0.79
				c-0.18,0.03-0.29,0.13-0.44,0.21c-0.17,0.09-0.14,0.17-0.32,0.22c-0.08,0.03-0.22,0.12-0.21,0.22c0,0.12,0,0.05,0.01,0.17
				c-0.02,0.01-0.02,0-0.03-0.03"/>
			<path class="st2" d="M8.16-2.78c0.02,0.07,0.01,0.13-0.03,0.19c-0.05,0.1-0.11,0.06-0.17,0.13C7.91-2.4,7.87-2.18,7.89-2.1
				C7.72-2.04,7.88-1.87,7.87-1.75c0,0.05-0.04,0.11-0.04,0.16C7.82-1.47,7.84-1.32,7.89-1.22c0.1,0.2,0.27,0.41,0.44,0.54
				C8.52-0.52,8.69-0.1,8.94-0.04C9.11,0,9.32-0.15,9.48-0.18c0.18-0.04,0.4,0.01,0.57-0.05c0.22-0.08,0.13-0.34,0.29-0.45
				c0.1-0.07,0.29-0.01,0.41-0.05c0.2-0.07,0.34-0.26,0.38-0.46c0.02-0.08,0.01-0.14,0.04-0.22c0.04-0.1,0.11-0.16,0.09-0.29
				c-0.01-0.06-0.05-0.12-0.06-0.19c-0.02-0.11,0-0.22,0-0.34c0-0.2,0.02-0.38-0.08-0.55c-0.38-0.69-1.24-0.93-1.97-0.79
				C8.95-3.54,8.85-3.45,8.69-3.37C8.52-3.28,8.55-3.2,8.37-3.14C8.29-3.12,8.16-3.02,8.16-2.92c0,0.12,0,0.05,0.01,0.17
				c-0.02,0.01-0.02,0-0.03-0.03"/>
			<path class="st2" d="M0.5-2.78C0.51-2.71,0.5-2.65,0.47-2.59C0.42-2.49,0.36-2.53,0.3-2.46C0.25-2.4,0.21-2.18,0.23-2.1
				C0.06-2.04,0.21-1.87,0.21-1.75c0,0.05-0.04,0.11-0.04,0.16C0.15-1.47,0.18-1.32,0.23-1.22c0.1,0.2,0.27,0.41,0.44,0.54
				C0.86-0.52,1.03-0.1,1.28-0.04C1.45,0,1.66-0.15,1.82-0.18C2-0.23,2.22-0.17,2.39-0.24c0.22-0.08,0.13-0.34,0.29-0.45
				c0.1-0.07,0.29-0.01,0.41-0.05C3.28-0.81,3.42-1,3.46-1.2C3.48-1.28,3.47-1.34,3.5-1.42c0.04-0.1,0.11-0.16,0.09-0.29
				C3.58-1.77,3.54-1.83,3.53-1.9c-0.02-0.11,0-0.22,0-0.34c0-0.2,0.02-0.38-0.08-0.55C3.07-3.47,2.21-3.71,1.47-3.57
				C1.29-3.54,1.19-3.45,1.03-3.37C0.86-3.28,0.89-3.2,0.71-3.14C0.63-3.12,0.5-3.02,0.5-2.92c0,0.12,0,0.05,0.01,0.17
				c-0.02,0.01-0.02,0-0.03-0.03"/>
		</g>
	</g>
</pattern>
<g>
	<path d="M73.26,74.33V56.06c0-1.13-0.23-1.88-0.69-2.26c-0.46-0.38-1.43-0.61-2.92-0.7v-0.96h6.72h6.73v0.96
		c-1.48,0.09-2.46,0.32-2.91,0.7c-0.46,0.38-0.69,1.13-0.69,2.26v18.27c0,1.13,0.23,1.89,0.69,2.26c0.46,0.38,1.43,0.61,2.91,0.7
		v0.96h-6.72h-6.74v-0.96c1.49-0.09,2.46-0.32,2.92-0.7C73.03,76.21,73.26,75.46,73.26,74.33z"/>
	<path d="M90.73,73.44c0,1.5,0.24,2.49,0.73,2.99c0.49,0.49,1.52,0.78,3.1,0.87v0.96h-4.45h-4.45v-0.96
		c1.41-0.09,2.33-0.37,2.75-0.86c0.43-0.49,0.64-1.48,0.64-3V55.95c-0.94-1.13-1.63-1.88-2.06-2.25c-0.44-0.37-0.87-0.57-1.31-0.6
		v-0.96h4.06h4.06l13.6,16.55V56.95c0-1.5-0.24-2.49-0.73-2.98c-0.48-0.49-1.52-0.78-3.1-0.87v-0.96h4.28h4.28v0.96
		c-1.26,0.08-2.08,0.36-2.47,0.85c-0.39,0.49-0.58,1.49-0.58,3v22h-0.53h-0.55l-17.26-21V73.44z"/>
	<path d="M129.48,59.89c-0.59-2.18-1.56-3.91-2.9-5.2c-1.35-1.29-2.86-1.94-4.53-1.94c-1.28,0-2.32,0.34-3.1,1.03
		c-0.79,0.69-1.18,1.6-1.18,2.73c0,1.08,0.41,2.01,1.22,2.77c0.81,0.75,2.3,1.6,4.47,2.53c2.9,1.25,5,2.56,6.28,3.94
		c1.27,1.37,1.9,2.99,1.9,4.87c0,2.57-0.86,4.6-2.59,6.1c-1.73,1.51-4.07,2.26-7.01,2.26c-1.61,0-3.46-0.37-5.55-1.11
		c-0.62-0.23-1.07-0.28-1.36-0.16c-0.29,0.12-0.51,0.44-0.68,0.97L114.37,79h-1.19v-9.58h1.13c0.43,2.49,1.37,4.5,2.82,6.01
		c1.45,1.52,3.15,2.27,5.1,2.27c1.46,0,2.64-0.41,3.53-1.22c0.89-0.81,1.34-1.88,1.34-3.22c0-1.08-0.43-2-1.28-2.77
		c-0.84-0.77-2.4-1.64-4.68-2.62c-2.69-1.17-4.64-2.43-5.83-3.79c-1.18-1.35-1.77-2.98-1.77-4.91c0-2.34,0.77-4.2,2.3-5.57
		c1.53-1.37,3.6-2.06,6.21-2.06c1.37-0.01,2.96,0.33,4.77,1.04c0.73,0.29,1.27,0.38,1.62,0.27c0.35-0.11,0.64-0.45,0.87-1.03
		l0.13-0.34h1.12v8.4H129.48z"/>
	<path d="M137.14,74.33V56.06c0-1.13-0.23-1.88-0.69-2.26c-0.46-0.38-1.43-0.61-2.91-0.7v-0.96h6.72h6.74v0.96
		c-1.49,0.09-2.46,0.32-2.92,0.7c-0.46,0.38-0.69,1.13-0.69,2.26v18.27c0,1.13,0.23,1.89,0.69,2.26c0.46,0.38,1.43,0.61,2.92,0.7
		v0.96h-6.72h-6.74v-0.96c1.49-0.09,2.46-0.32,2.92-0.7C136.91,76.21,137.14,75.46,137.14,74.33z"/>
	<path d="M153.24,74.33V56.06c0-1.14-0.2-1.9-0.61-2.28c-0.41-0.38-1.28-0.6-2.61-0.68v-0.96h6.34h5.49c4.39,0,7.87,1.12,10.43,3.37
		c2.57,2.25,3.85,5.29,3.85,9.13c0,4.17-1.24,7.49-3.72,9.94c-2.48,2.45-5.84,3.68-10.08,3.68h-5.98h-6.34v-0.96
		c1.33-0.08,2.21-0.3,2.62-0.68C153.04,76.23,153.24,75.47,153.24,74.33z M159.48,74.72c0,0.78,0.18,1.35,0.54,1.71
		c0.36,0.36,0.93,0.54,1.71,0.54h0.4c2.39,0,4.21-0.99,5.45-2.96c1.25-1.98,1.87-4.84,1.87-8.6c0-3.9-0.67-6.87-2-8.92
		c-1.33-2.04-3.27-3.06-5.81-3.06h-0.17c-0.73,0-1.24,0.15-1.54,0.44c-0.29,0.3-0.44,0.81-0.44,1.54V74.72z"/>
	<path d="M175.77,78.25v-0.96c1.41-0.09,2.33-0.32,2.75-0.69c0.43-0.37,0.64-1.13,0.64-2.27V56.06c0-1.14-0.21-1.9-0.64-2.27
		c-0.43-0.37-1.35-0.6-2.75-0.69v-0.96h9.64h12.64v3.87v3.89h-0.95c-0.29-2.33-1.05-3.99-2.29-4.98c-1.24-0.99-3.17-1.49-5.78-1.49
		h-1.64c-0.73,0-1.24,0.15-1.54,0.44c-0.29,0.3-0.44,0.81-0.44,1.54v8.85h0.68c1.76,0,3.07-0.44,3.92-1.32
		c0.86-0.88,1.42-2.36,1.68-4.43h1.02v6.49v6.51h-1.02c-0.26-2.15-0.83-3.68-1.69-4.6c-0.86-0.91-2.16-1.37-3.91-1.37h-0.68v9.25
		c0,0.78,0.18,1.35,0.54,1.71c0.36,0.36,0.93,0.54,1.71,0.54h0.9c2.69,0,4.83-0.52,6.41-1.55c1.58-1.04,2.87-2.77,3.88-5.2h1.08
		l-0.78,3.98l-0.79,4h-12.95H175.77z"/>
	<path d="M204.76,74.33V56.06c0-1.14-0.21-1.9-0.64-2.27c-0.43-0.37-1.35-0.6-2.75-0.69v-0.96h6.51h6.06c3.53,0,6.22,0.58,8.06,1.72
		c1.84,1.15,2.76,2.83,2.76,5.03c0,2.38-0.98,4.19-2.95,5.44c-0.87,0.54-1.91,0.97-3.13,1.28l6.17,8.72
		c0.87,1.19,1.51,1.98,1.93,2.36c0.42,0.38,0.89,0.58,1.39,0.6v0.96h-1.22h-6.78l-7.95-12.08H211v8.15c0,1.14,0.22,1.9,0.64,2.27
		c0.43,0.37,1.35,0.6,2.75,0.69v0.96h-6.5h-6.53v-0.96c1.41-0.09,2.33-0.32,2.75-0.7C204.55,76.23,204.76,75.47,204.76,74.33z
		 M211,64.89h1.51c2.06,0,3.52-0.45,4.37-1.35c0.85-0.9,1.28-2.44,1.28-4.61c0-1.9-0.4-3.29-1.19-4.18
		c-0.79-0.89-2.04-1.33-3.74-1.33h-0.25c-0.73,0-1.24,0.15-1.53,0.44c-0.3,0.3-0.45,0.81-0.45,1.54V64.89z"/>
	<path d="M245.93,59.89c-0.59-2.18-1.56-3.91-2.9-5.2c-1.35-1.29-2.86-1.94-4.53-1.94c-1.28,0-2.32,0.34-3.11,1.03
		c-0.79,0.69-1.18,1.6-1.18,2.73c0,1.08,0.41,2.01,1.23,2.77c0.8,0.75,2.29,1.6,4.47,2.53c2.91,1.25,5,2.56,6.28,3.94
		c1.27,1.37,1.91,2.99,1.91,4.87c0,2.57-0.87,4.6-2.6,6.1c-1.73,1.51-4.07,2.26-7.01,2.26c-1.61,0-3.46-0.37-5.55-1.11
		c-0.62-0.23-1.07-0.28-1.36-0.16c-0.29,0.12-0.52,0.44-0.68,0.97L230.82,79h-1.19v-9.58h1.13c0.43,2.49,1.37,4.5,2.82,6.01
		c1.45,1.52,3.15,2.27,5.1,2.27c1.46,0,2.64-0.41,3.53-1.22c0.89-0.81,1.34-1.88,1.34-3.22c0-1.08-0.43-2-1.28-2.77
		c-0.84-0.77-2.4-1.64-4.68-2.62c-2.69-1.17-4.64-2.43-5.83-3.79c-1.18-1.35-1.77-2.98-1.77-4.91c0-2.34,0.77-4.2,2.3-5.57
		c1.53-1.37,3.6-2.06,6.21-2.06c1.37-0.01,2.96,0.33,4.77,1.04c0.73,0.29,1.27,0.38,1.62,0.27c0.35-0.11,0.64-0.45,0.87-1.03
		l0.13-0.34H247v8.4H245.93z"/>
</g>
<g>
	<g>
		<path d="M80.18,26.9h1.26h1.28v2.04l0.21-0.25c1.27-1.54,3.03-2.31,5.28-2.31c2.49,0,4.43,0.77,5.83,2.31
			c0.4,0.45,0.75,0.95,1.05,1.49c0.26-0.57,0.58-1.07,0.94-1.49c1.29-1.54,3.09-2.31,5.39-2.31c2.55,0,4.54,0.79,5.97,2.36
			c1.43,1.58,2.14,3.76,2.14,6.56v11.51h-1.28h-1.28v-11.8c0-1.98-0.48-3.53-1.43-4.65c-0.96-1.12-2.28-1.68-3.98-1.68
			c-1.73,0-3.07,0.56-4.01,1.68c-0.94,1.12-1.42,2.71-1.42,4.77v11.67h-1.28h-1.28V35.04c0-1.99-0.48-3.54-1.44-4.66
			c-0.96-1.12-2.29-1.68-3.98-1.68c-1.73,0-3.06,0.56-4.01,1.68c-0.94,1.12-1.41,2.71-1.41,4.77v11.67h-1.28h-1.28V26.9z"/>
		<path d="M116.73,38.71c0,1.98,0.53,3.52,1.58,4.63c1.05,1.11,2.52,1.66,4.39,1.66c2.03,0,3.59-0.65,4.69-1.95
			c1.1-1.3,1.65-3.16,1.65-5.58V26.9h1.28h1.28v19.92h-1.19h-1.21v-3.2c-0.2,0.37-0.44,0.72-0.71,1.07
			c-1.37,1.73-3.28,2.59-5.72,2.59c-2.7,0-4.81-0.75-6.32-2.26c-1.52-1.5-2.27-3.59-2.27-6.25V26.9h1.28h1.28V38.71z"/>
		<path d="M136.39,19.9h1.28h1.28v26.92h-1.28h-1.28V19.9z"/>
		<path d="M146.06,46.81V29.19h-4.23V26.9h4.23v-6.96h2.56v6.96h4.71v2.29h-4.71v17.62H146.06z"/>
		<path d="M156.01,26.9h1.28h1.28v19.92h-1.28h-1.28V26.9z M156.03,19.9h2.54v4.57h-2.54V19.9z"/>
		<path d="M167.29,29.19v17.62h-1.28h-1.28V29.19h-3.11V26.9h3.11v-0.41c0-2.26,0.61-4,1.83-5.22c1.22-1.22,2.96-1.83,5.21-1.83
			h0.59v2.26c-1.72,0.01-2.99,0.38-3.82,1.11c-0.83,0.73-1.24,1.86-1.24,3.38v0.71h5.06v2.29H167.29z"/>
		<path d="M184.36,47.28c-2.93,0-5.4-1.01-7.44-3.02c-2.03-2.01-3.05-4.48-3.05-7.39c0-2.93,1.01-5.4,3.05-7.41
			c2.03-2.01,4.51-3.02,7.44-3.02c2.96,0,5.42,1.01,7.37,3.04l0.66,0.76V26.9h2.56v19.92h-1.28h-1.28v-3.32
			c-0.2,0.27-0.42,0.53-0.66,0.76C189.78,46.27,187.33,47.28,184.36,47.28z M184.47,28.69c-2.25,0-4.15,0.79-5.7,2.38
			c-1.55,1.59-2.33,3.53-2.33,5.83c0,2.3,0.78,4.24,2.33,5.82c1.55,1.58,3.45,2.37,5.7,2.37c2.25,0,4.15-0.79,5.7-2.38
			c1.55-1.59,2.33-3.53,2.33-5.83c0-2.3-0.78-4.24-2.33-5.82C188.62,29.48,186.72,28.69,184.47,28.69z"/>
		<path d="M199.61,26.9h1.26h1.28v2.04l0.21-0.25c1.27-1.54,3.03-2.31,5.28-2.31c2.49,0,4.43,0.77,5.83,2.31
			c0.4,0.45,0.75,0.95,1.05,1.49c0.26-0.57,0.58-1.07,0.94-1.49c1.29-1.54,3.09-2.31,5.39-2.31c2.55,0,4.54,0.79,5.97,2.36
			c1.43,1.58,2.14,3.76,2.14,6.56v11.51h-1.28h-1.28v-11.8c0-1.98-0.48-3.53-1.43-4.65c-0.96-1.12-2.28-1.68-3.98-1.68
			c-1.73,0-3.07,0.56-4.01,1.68c-0.94,1.12-1.41,2.71-1.41,4.77v11.67h-1.28H213V35.04c0-1.99-0.48-3.54-1.44-4.66
			c-0.96-1.12-2.29-1.68-3.98-1.68c-1.73,0-3.06,0.56-4.01,1.68c-0.94,1.12-1.41,2.71-1.41,4.77v11.67h-1.28h-1.28V26.9z"/>
		<path d="M233.7,26.9h1.28h1.28v19.92h-1.28h-1.28V26.9z M233.72,19.9h2.54v4.57h-2.54V19.9z"/>
		<path d="M240.99,19.9h1.28h1.28v26.92h-1.28h-1.28V19.9z"/>
		<path d="M253.26,53.89h-1.24h-1.26l3.41-7.97v-0.01l-7.71-19.01h1.39h1.39l6.25,15.92h0.01l6.73-15.92h1.36h1.35L253.26,53.89z"/>
	</g>
</g>
<g>
	<path class="st3" d="M62.96,43.42l-0.74,4.43c3.89-5.72,5-12.55,2.3-18.45c-4.52-9.89-17.99-13.43-30.1-7.9
		c-12.11,5.53-18.26,18.03-13.75,27.92c1.16,2.55,2.93,4.67,5.1,6.33l-1.08-4.29c-0.42-0.64-0.81-1.31-1.13-2.02
		c-4.03-8.82,1.46-19.96,12.25-24.89c10.79-4.93,22.81-1.78,26.83,7.04C64.35,35.35,64.35,39.5,62.96,43.42z M61.43,52.59
		c7.91-7.66,11.01-18.35,6.92-27.3c-5.49-12.02-21.87-16.32-36.59-9.6C17.04,22.41,9.56,37.6,15.05,49.62
		c2.33,5.1,6.63,8.81,11.92,10.88L26.35,58c-3.4-1.93-6.14-4.75-7.78-8.34c-4.89-10.72,1.77-24.26,14.89-30.25
		c13.12-5.99,27.72-2.16,32.61,8.56c3.29,7.2,1.35,15.68-4.25,22.29L61.43,52.59z M72.59,20.4C66,5.96,46.32,0.79,28.64,8.87
		C10.97,16.94,1.99,35.19,8.58,49.63c3.5,7.67,10.7,12.73,19.33,14.57l-0.57-2.25c-6.48-2.04-11.79-6.25-14.54-12.28
		C6.92,36.8,14.93,20.53,30.68,13.33c15.76-7.19,33.29-2.59,39.17,10.28c4.58,10.04,0.72,22.14-8.67,30.39l-0.36,2.16
		C72.82,46.92,78.05,32.35,72.59,20.4z"/>
	<g>
		<polygon points="24.76,44.26 37.19,36.76 40.4,79.02 33.14,77.4 		"/>
		<polygon points="39.96,31.43 50.83,26.38 47.51,80 41.93,79.97 		"/>
		<polygon points="53.17,33.15 61.34,41.96 55.26,78.35 49.19,79.39 		"/>
		<g>
			<path d="M25.47,44.55l5.04,19.92c2.64,0.36,5.39,0.44,8.19,0.2L36.66,37.8L25.47,44.55z"/>
			<path d="M40.59,31.81l1.32,32.46c2.01-0.33,4.04-0.83,6.05-1.49l2.19-35.42L40.59,31.81z"/>
			<path d="M53.66,34.58l-2.32,26.95c0.27-0.11,0.54-0.22,0.81-0.34c2.09-0.93,4.05-2,5.89-3.19l2.65-15.84L53.66,34.58z"/>
		</g>
	</g>
</g>
</svg>
